<?xml version="1.0" encoding="utf-8"?>
<!-- Generator: Adobe Illustrator 18.1.0, SVG Export Plug-In . SVG Version: 6.00 Build 0)  -->
<!DOCTYPE svg PUBLIC "-//W3C//DTD SVG 1.1//EN" "http://www.w3.org/Graphics/SVG/1.1/DTD/svg11.dtd">
<svg version="1.1" id="Camada_1" xmlns="http://www.w3.org/2000/svg" xmlns:xlink="http://www.w3.org/1999/xlink" x="0px" y="0px"
	 viewBox="0 0 35 35" enable-background="new 0 0 35 35" xml:space="preserve">
<g>
	<path fill="#FFFFFF" d="M26.7,17.5c3.2-2.9,4.8-5.8,3.8-7.5c-1-1.7-4.3-1.7-8.4-0.5c-1-4.2-2.7-7-4.6-7c-1.9,0-3.6,2.8-4.6,7
		C8.8,8.3,5.5,8.3,4.5,10s0.6,4.6,3.8,7.5c-3.2,2.9-4.8,5.8-3.8,7.5c1,1.7,4.3,1.7,8.4,0.5c1,4.2,2.7,7,4.6,7c1.9,0,3.6-2.8,4.6-7
		c4.1,1.3,7.4,1.2,8.4-0.5C31.5,23.3,29.9,20.4,26.7,17.5z"/>
	
		<ellipse fill="none" stroke="#00B7AD" stroke-width="1.2" stroke-linecap="round" stroke-linejoin="round" stroke-miterlimit="10" cx="17.5" cy="17.5" rx="5.4" ry="15"/>
	
		<ellipse transform="matrix(-0.5 -0.866 0.866 -0.5 11.0946 41.4054)" fill="none" stroke="#00B7AD" stroke-width="1.2" stroke-linecap="round" stroke-linejoin="round" stroke-miterlimit="10" cx="17.5" cy="17.5" rx="5.4" ry="15"/>
	
		<ellipse transform="matrix(-0.5 0.866 -0.866 -0.5 41.4054 11.0945)" fill="none" stroke="#00B7AD" stroke-width="1.2" stroke-linecap="round" stroke-linejoin="round" stroke-miterlimit="10" cx="17.5" cy="17.5" rx="5.4" ry="15"/>
	
		<circle fill="none" stroke="#00B7AD" stroke-width="1.2" stroke-linecap="round" stroke-linejoin="round" stroke-miterlimit="10" cx="17.5" cy="17.5" r="2.1"/>
</g>
</svg>
