<?xml version="1.0" encoding="utf-8"?>
<!-- Generator: Adobe Illustrator 18.1.0, SVG Export Plug-In . SVG Version: 6.00 Build 0)  -->
<!DOCTYPE svg PUBLIC "-//W3C//DTD SVG 1.1//EN" "http://www.w3.org/Graphics/SVG/1.1/DTD/svg11.dtd">
<svg version="1.1" id="Camada_1" xmlns="http://www.w3.org/2000/svg" xmlns:xlink="http://www.w3.org/1999/xlink" x="0px" y="0px"
	 viewBox="0 0 35 35" enable-background="new 0 0 35 35" xml:space="preserve">
<g>
	<path fill="#FFFFFF" stroke="#00B7AD" stroke-width="0.93" stroke-miterlimit="22.9256" d="M2,17.5C2,17.7,2.1,18,2.5,18l10.9,1.4
		c0.4,0,0.6,0.5,0.3,0.7l-3.9,5c-0.2,0.2-1.2,1.5-1,1.7c0.1,0.2,1.5-0.9,1.7-1.1l4.9-4.1c0.3-0.3,0.7-0.1,0.8,0.3l0.8,10.5
		c0,0.3,0.2,1.5,0.4,1.5c0.2,0,0.5-1.2,0.5-1.5L19.2,22c0-0.4,0.5-0.6,0.7-0.3l4.7,3.2c0.2,0.2,1.5,1.1,1.7,1c0.1-0.2-0.9-1.4-1-1.6
		L21.8,20c-0.3-0.3-0.1-0.7,0.3-0.8l10.5-1.3c0.3,0,0.4-0.2,0.4-0.4 M33,17.5c0-0.2-0.1-0.5-0.5-0.5l-10.9-1.4
		c-0.4,0-0.6-0.5-0.3-0.7l3.9-5c0.2-0.2,1.2-1.5,1-1.7C26.1,8,24.8,9,24.5,9.2l-4.9,4.1c-0.3,0.3-0.7,0.1-0.8-0.3L18.1,2.5
		C18,2.2,17.8,1,17.6,1c-0.2,0-0.5,1.2-0.5,1.5L15.8,13c0,0.4-0.5,0.6-0.7,0.3l-4.7-3.2c-0.2-0.2-1.5-1.1-1.7-1
		c-0.1,0.2,0.9,1.4,1,1.6l3.5,4.3c0.3,0.3,0.1,0.7-0.3,0.8L2.4,17.1c-0.3,0-0.4,0.2-0.4,0.4"/>
</g>
</svg>
