<?xml version="1.0" encoding="utf-8"?>
<!-- Generator: Adobe Illustrator 18.1.0, SVG Export Plug-In . SVG Version: 6.00 Build 0)  -->
<!DOCTYPE svg PUBLIC "-//W3C//DTD SVG 1.1//EN" "http://www.w3.org/Graphics/SVG/1.1/DTD/svg11.dtd">
<svg version="1.1" id="Camada_1" xmlns="http://www.w3.org/2000/svg" xmlns:xlink="http://www.w3.org/1999/xlink" x="0px" y="0px"
	 viewBox="0 0 35 35" enable-background="new 0 0 35 35" xml:space="preserve">
<g>
	
		<rect x="10.9" y="13.2" fill="#FFFFFF" stroke="#00B7AD" stroke-width="1.2" stroke-linecap="round" stroke-linejoin="round" stroke-miterlimit="10" width="13.2" height="11"/>
	<g>
		
			<path fill="#FFFFFF" stroke="#00B7AD" stroke-width="1.2" stroke-linecap="round" stroke-linejoin="round" stroke-miterlimit="10" d="
			M17.5,5.6C10.1,5.6,4,11.6,4,19c0,7.4,6,13.5,13.5,13.5c7.4,0,13.5-6,13.5-13.5C31,11.6,24.9,5.6,17.5,5.6z M17.5,23.9
			c-2.7,0-4.9-2.2-4.9-4.9c0-2.7,2.2-4.9,4.9-4.9c2.7,0,4.9,2.2,4.9,4.9C22.4,21.7,20.2,23.9,17.5,23.9z"/>
		
			<circle fill="#FFFFFF" stroke="#00B7AD" stroke-width="1.2" stroke-linecap="round" stroke-linejoin="round" stroke-miterlimit="10" cx="17.5" cy="5.5" r="3"/>
	</g>
</g>
</svg>
