<?xml version="1.0" encoding="utf-8"?>
<!-- Generator: Adobe Illustrator 18.1.0, SVG Export Plug-In . SVG Version: 6.00 Build 0)  -->
<!DOCTYPE svg PUBLIC "-//W3C//DTD SVG 1.1//EN" "http://www.w3.org/Graphics/SVG/1.1/DTD/svg11.dtd">
<svg version="1.1" id="Camada_1" xmlns="http://www.w3.org/2000/svg" xmlns:xlink="http://www.w3.org/1999/xlink" x="0px" y="0px"
	 viewBox="0 0 35 35" enable-background="new 0 0 35 35" xml:space="preserve">
<g>
	<g>
		<path fill="#FFFFFF" d="M3.2,24.2c0.9,3.6,2.8,6.4,6.4,7.7c2.4,0.9,4.7,0.8,6.9-0.6c2.5-1.7,3-4.3,2.5-7.1c-0.2-1-0.6-2-0.9-3
			c0.3,0,0.6,0.1,0.9,0.1c1.8,0.2,3.3-0.4,4.3-1.8c0.5-0.6,0.8-1.3,1.3-2c0.5-0.6,0.9-1.3,1.5-1.8c1.3-1.2,3.1-0.7,3.8,0.9
			c0.6,1.4,0.8,2.8,0.5,4.3c-0.4,2.6-2.4,4.5-5,4.8c-2.2,0.2-3.7-1-4.1-3.1c0-0.1,0-0.3-0.1-0.4c-0.2,0.3-0.3,0.5-0.3,0.8
			c0,1.2,0,2.4,0.2,3.5c0.6,2.5,2.8,4,5.3,3.7c2.4-0.3,4-1.7,4.9-3.8c1.6-3.7,1.4-7.4-0.6-10.9c-2.4-4.1-7-4-9.4-0.7
			c-0.7,0.9-1.2,2-1.8,3c-0.3,0.5-0.7,1.1-1.2,1.5c-0.6,0.6-1.3,0.7-2.1,0.4c-0.6-0.2-1.2-0.5-1.8-0.8c1.7-1,2.8-2.4,3.2-4.3
			c0.5-2.8-1-5.2-3.6-5.7c-0.9-0.2-1.9-0.1-2.8-0.1c-2,0.2-3.7,1-5.2,2.1c-0.1,0.1-0.3,0.4-0.2,0.6c0.6,1.2,1.2,2.3,1.7,3.4
			c1.3-0.6,2.5-1.3,3.7-1.9c1.1-0.5,2.2-0.5,3.3,0.1c0.7,0.3,1,0.9,1.1,1.7c0,0.7-0.3,1.3-1,1.6c-0.5,0.2-1,0.5-1.5,0.6
			c-1.2,0.1-2.4,0-3.7,0c0.5,1.5,1,3.1,1.5,4.5c1-0.1,1.9-0.3,2.8-0.2c1.8,0.1,3,1.6,2.8,3.4c-0.2,1.5-1,2.5-2.3,3.1
			c-2.9,1.4-6.4,0.5-8.3-2.1c-1.6-2.1-2.5-4.6-2.8-7.2c0,0.2-0.1,0.5-0.1,0.7C2.6,20.9,2.8,22.5,3.2,24.2z"/>
		<path fill="#FFFFFF" d="M29.6,8.8c-0.9-1.1-1.7-2.1-2.5-3.1c-4.9,4.3-9,3.9-11.7-1.4c0,0.5,0,0.8,0,1.1c0.2,2.6,2.2,5.3,4.7,6.1
			c2.8,0.9,5.3,0.1,7.7-1.3C28.5,9.8,29,9.3,29.6,8.8z"/>
		<path fill="#FFFFFF" d="M23.9,5.2C23,4.3,22,3.4,21,2.5c-0.9,1-1.8,1.9-2.8,2.9c1,0.9,1.9,1.8,2.9,2.6C22.1,7.1,23,6.2,23.9,5.2z"
			/>
	</g>
	<g>
		<path fill="none" stroke="#000000" stroke-width="0" stroke-linecap="round" stroke-linejoin="round" d="M3.2,24.2
			c0.9,3.6,2.8,6.4,6.4,7.7c2.4,0.9,4.7,0.8,6.9-0.6c2.5-1.7,3-4.3,2.5-7.1c-0.2-1-0.6-2-0.9-3c0.3,0,0.6,0.1,0.9,0.1
			c1.8,0.2,3.3-0.4,4.3-1.8c0.5-0.6,0.8-1.3,1.3-2c0.5-0.6,0.9-1.3,1.5-1.8c1.3-1.2,3.1-0.7,3.8,0.9c0.6,1.4,0.8,2.8,0.5,4.3
			c-0.4,2.6-2.4,4.5-5,4.8c-2.2,0.2-3.7-1-4.1-3.1c0-0.1,0-0.3-0.1-0.4c-0.2,0.3-0.3,0.5-0.3,0.8c0,1.2,0,2.4,0.2,3.5
			c0.6,2.5,2.8,4,5.3,3.7c2.4-0.3,4-1.7,4.9-3.8c1.6-3.7,1.4-7.4-0.6-10.9c-2.4-4.1-7-4-9.4-0.7c-0.7,0.9-1.2,2-1.8,3
			c-0.3,0.5-0.7,1.1-1.2,1.5c-0.6,0.6-1.3,0.7-2.1,0.4c-0.6-0.2-1.2-0.5-1.8-0.8c1.7-1,2.8-2.4,3.2-4.3c0.5-2.8-1-5.2-3.6-5.7
			c-0.9-0.2-1.9-0.1-2.8-0.1c-2,0.2-3.7,1-5.2,2.1c-0.1,0.1-0.3,0.4-0.2,0.6c0.6,1.2,1.2,2.3,1.7,3.4c1.3-0.6,2.5-1.3,3.7-1.9
			c1.1-0.5,2.2-0.5,3.3,0.1c0.7,0.3,1,0.9,1.1,1.7c0,0.7-0.3,1.3-1,1.6c-0.5,0.2-1,0.5-1.5,0.6c-1.2,0.1-2.4,0-3.7,0
			c0.5,1.5,1,3.1,1.5,4.5c1-0.1,1.9-0.3,2.8-0.2c1.8,0.1,3,1.6,2.8,3.4c-0.2,1.5-1,2.5-2.3,3.1c-2.9,1.4-6.4,0.5-8.3-2.1
			c-1.6-2.1-2.5-4.6-2.8-7.2c0,0.2-0.1,0.5-0.1,0.7C2.6,20.9,2.8,22.5,3.2,24.2z"/>
		<path fill="none" stroke="#000000" stroke-width="0" stroke-linecap="round" stroke-linejoin="round" d="M29.6,8.8
			c-0.9-1.1-1.7-2.1-2.5-3.1c-4.9,4.3-9,3.9-11.7-1.4c0,0.5,0,0.8,0,1.1c0.2,2.6,2.2,5.3,4.7,6.1c2.8,0.9,5.3,0.1,7.7-1.3
			C28.5,9.8,29,9.3,29.6,8.8z"/>
		<path fill="none" stroke="#000000" stroke-width="0" stroke-linecap="round" stroke-linejoin="round" d="M23.9,5.2
			C23,4.3,22,3.4,21,2.5c-0.9,1-1.8,1.9-2.8,2.9c1,0.9,1.9,1.8,2.9,2.6C22.1,7.1,23,6.2,23.9,5.2z"/>
	</g>
	<g>
		<path fill="none" stroke="#00B7AD" stroke-linecap="round" stroke-linejoin="round" stroke-miterlimit="10" d="M3.2,24.2
			c0.9,3.6,2.8,6.4,6.4,7.7c2.4,0.9,4.7,0.8,6.9-0.6c2.5-1.7,3-4.3,2.5-7.1c-0.2-1-0.6-2-0.9-3c0.3,0,0.6,0.1,0.9,0.1
			c1.8,0.2,3.3-0.4,4.3-1.8c0.5-0.6,0.8-1.3,1.3-2c0.5-0.6,0.9-1.3,1.5-1.8c1.3-1.2,3.1-0.7,3.8,0.9c0.6,1.4,0.8,2.8,0.5,4.3
			c-0.4,2.6-2.4,4.5-5,4.8c-2.2,0.2-3.7-1-4.1-3.1c0-0.1,0-0.3-0.1-0.4c-0.2,0.3-0.3,0.5-0.3,0.8c0,1.2,0,2.4,0.2,3.5
			c0.6,2.5,2.8,4,5.3,3.7c2.4-0.3,4-1.7,4.9-3.8c1.6-3.7,1.4-7.4-0.6-10.9c-2.4-4.1-7-4-9.4-0.7c-0.7,0.9-1.2,2-1.8,3
			c-0.3,0.5-0.7,1.1-1.2,1.5c-0.6,0.6-1.3,0.7-2.1,0.4c-0.6-0.2-1.2-0.5-1.8-0.8c1.7-1,2.8-2.4,3.2-4.3c0.5-2.8-1-5.2-3.6-5.7
			c-0.9-0.2-1.9-0.1-2.8-0.1c-2,0.2-3.7,1-5.2,2.1c-0.1,0.1-0.3,0.4-0.2,0.6c0.6,1.2,1.2,2.3,1.7,3.4c1.3-0.6,2.5-1.3,3.7-1.9
			c1.1-0.5,2.2-0.5,3.3,0.1c0.7,0.3,1,0.9,1.1,1.7c0,0.7-0.3,1.3-1,1.6c-0.5,0.2-1,0.5-1.5,0.6c-1.2,0.1-2.4,0-3.7,0
			c0.5,1.5,1,3.1,1.5,4.5c1-0.1,1.9-0.3,2.8-0.2c1.8,0.1,3,1.6,2.8,3.4c-0.2,1.5-1,2.5-2.3,3.1c-2.9,1.4-6.4,0.5-8.3-2.1
			c-1.6-2.1-2.5-4.6-2.8-7.2c0,0.2-0.1,0.5-0.1,0.7C2.6,20.9,2.8,22.5,3.2,24.2z"/>
		<path fill="none" stroke="#00B7AD" stroke-linecap="round" stroke-linejoin="round" stroke-miterlimit="10" d="M29.6,8.8
			c-0.9-1.1-1.7-2.1-2.5-3.1c-4.9,4.3-9,3.9-11.7-1.4c0,0.5,0,0.8,0,1.1c0.2,2.6,2.2,5.3,4.7,6.1c2.8,0.9,5.3,0.1,7.7-1.3
			C28.5,9.8,29,9.3,29.6,8.8z"/>
		<path fill="none" stroke="#00B7AD" stroke-linecap="round" stroke-linejoin="round" stroke-miterlimit="10" d="M23.9,5.2
			C23,4.3,22,3.4,21,2.5c-0.9,1-1.8,1.9-2.8,2.9c1,0.9,1.9,1.8,2.9,2.6C22.1,7.1,23,6.2,23.9,5.2z"/>
	</g>
</g>
</svg>
