<?xml version="1.0" encoding="utf-8"?>
<!-- Generator: Adobe Illustrator 18.1.0, SVG Export Plug-In . SVG Version: 6.00 Build 0)  -->
<!DOCTYPE svg PUBLIC "-//W3C//DTD SVG 1.1//EN" "http://www.w3.org/Graphics/SVG/1.1/DTD/svg11.dtd">
<svg version="1.1" id="Camada_1" xmlns="http://www.w3.org/2000/svg" xmlns:xlink="http://www.w3.org/1999/xlink" x="0px" y="0px"
	 viewBox="0 0 35 35" enable-background="new 0 0 35 35" xml:space="preserve">
<g>
	<path fill="none" d="M32.4,15.8"/>
	<path fill="none" d="M32.4,15.8"/>
	<g>
		
			<path fill="#FFFFFF" stroke="#00B7AD" stroke-width="1.2" stroke-linecap="round" stroke-linejoin="round" stroke-miterlimit="10" d="
			M32.4,15.8c0.1,0.6,0.1,1.1,0.1,1.7c0,8.3-6.7,15-15,15s-15-6.7-15-15s7.4-15,15.7-15c0.3,0-0.3,0,0,0c-5.6,1-9.5,5.9-9.5,11.7
			c0,6.6,5.3,11.9,11.9,11.9C26.7,26.1,31.7,21.6,32.4,15.8"/>
		
			<polygon fill="#FFFFFF" stroke="#00B7AD" stroke-width="1.2" stroke-linecap="round" stroke-linejoin="round" stroke-miterlimit="10" points="
			29.4,14.5 24.9,14.9 22.6,18.8 20.9,14.7 16.4,13.7 19.9,10.8 19.4,6.3 23.3,8.6 27.4,6.7 26.4,11.2 		"/>
	</g>
</g>
</svg>
