<?xml version="1.0" encoding="utf-8"?>
<!-- Generator: Adobe Illustrator 18.1.0, SVG Export Plug-In . SVG Version: 6.00 Build 0)  -->
<!DOCTYPE svg PUBLIC "-//W3C//DTD SVG 1.1//EN" "http://www.w3.org/Graphics/SVG/1.1/DTD/svg11.dtd">
<svg version="1.1" id="Camada_1" xmlns="http://www.w3.org/2000/svg" xmlns:xlink="http://www.w3.org/1999/xlink" x="0px" y="0px"
	 viewBox="0 0 35 35" enable-background="new 0 0 35 35" xml:space="preserve">
<g>
	<path fill="#FFFFFF" d="M26.5,17.5l4.1-7c0.2-0.3,0-0.6-0.4-0.6h-8.2l-4.2-7.1c-0.2-0.3-0.6-0.3-0.8,0l-4.2,7.1H4.7
		c-0.3,0-0.5,0.3-0.4,0.6l4.1,7l-4.1,7c-0.2,0.3,0,0.7,0.4,0.7h8.2l4.2,7.2c0.2,0.3,0.5,0.3,0.7,0l4.2-7.2h8.2
		c0.3,0,0.6-0.4,0.4-0.7L26.5,17.5z"/>
	<path fill="#00B7AD" stroke="#FFFFFF" stroke-width="0.15" stroke-miterlimit="10" d="M30.2,25.1H4.8c-0.3,0-0.6-0.4-0.4-0.7
		L17.1,2.7c0.2-0.3,0.6-0.3,0.8,0l12.7,21.7C30.8,24.7,30.6,25.1,30.2,25.1z M7.3,23.7h20.3c0.3,0,0.6-0.4,0.4-0.7L17.9,5.6
		c-0.2-0.3-0.6-0.3-0.8,0L7,23C6.8,23.3,7,23.7,7.3,23.7z"/>
	<path fill="#00B7AD" stroke="#FFFFFF" stroke-width="0.15" stroke-miterlimit="10" d="M17.1,32.3L4.4,10.5c-0.2-0.3,0-0.6,0.4-0.6
		h25.6c0.3,0,0.5,0.3,0.4,0.6L17.9,32.3C17.7,32.6,17.3,32.6,17.1,32.3z M6.9,11.9l10.2,17.5c0.2,0.3,0.5,0.3,0.7,0l10.2-17.5
		c0.2-0.3,0-0.6-0.4-0.6H7.3C7,11.3,6.8,11.6,6.9,11.9z"/>
</g>
</svg>
