<?xml version="1.0" encoding="utf-8"?>
<!-- Generator: Adobe Illustrator 18.1.0, SVG Export Plug-In . SVG Version: 6.00 Build 0)  -->
<!DOCTYPE svg PUBLIC "-//W3C//DTD SVG 1.1//EN" "http://www.w3.org/Graphics/SVG/1.1/DTD/svg11.dtd">
<svg version="1.1" id="Camada_1" xmlns="http://www.w3.org/2000/svg" xmlns:xlink="http://www.w3.org/1999/xlink" x="0px" y="0px"
	 viewBox="0 0 35 35" enable-background="new 0 0 35 35" xml:space="preserve">
<g>
	
		<path fill="#FFFFFF" stroke="#00B7AD" stroke-width="1.3685" stroke-linecap="round" stroke-linejoin="round" stroke-miterlimit="10" d="
		M17,8.6H8.3c-3.2,0-5.9,2.6-5.9,5.9v4.9c0,3.2,2.6,5.9,5.9,5.9h2.1C9.6,27.6,8.8,30,8.8,30l5.8-4.8H17c3.2,0,5.9-2.6,5.9-5.9v-4.9
		C22.9,11.2,20.3,8.6,17,8.6z"/>
	
		<path fill="#FFFFFF" stroke="#00B7AD" stroke-width="1.3685" stroke-linecap="round" stroke-linejoin="round" stroke-miterlimit="10" d="
		M20.1,5h7.4c2.8,0,5.1,2.3,5.1,5.1v4.3c0,2.8-2.3,5.1-5.1,5.1h-1.8c0.7,2.1,1.3,4.2,1.3,4.2L22,19.5h-1.8c-2.8,0-5.1-2.3-5.1-5.1
		v-4.3C15,7.3,17.3,5,20.1,5z"/>
</g>
</svg>
