<?xml version="1.0" encoding="utf-8"?>
<!-- Generator: Adobe Illustrator 18.1.0, SVG Export Plug-In . SVG Version: 6.00 Build 0)  -->
<!DOCTYPE svg PUBLIC "-//W3C//DTD SVG 1.1//EN" "http://www.w3.org/Graphics/SVG/1.1/DTD/svg11.dtd">
<svg version="1.1" id="Camada_1" xmlns="http://www.w3.org/2000/svg" xmlns:xlink="http://www.w3.org/1999/xlink" x="0px" y="0px"
	 viewBox="547.6 -10.4 60 55" enable-background="new 547.6 -10.4 60 55" xml:space="preserve">
<g id="Layer_x0020_1">
	<g id="_622446352">
		<path fill="#008078" d="M562.3,37l11.4-17.9V-1h-20.1v20.4h7.5L552.1,37C552.1,37,561.9,37.1,562.3,37z"/>
		<path fill="#1BC19A" d="M565.7,35l11.4-17.9V-3H556v20.4h8.5l-8.9,17.6C555.5,35.1,565.3,35.1,565.7,35z"/>
	</g>
	<g id="_622430768">
		<path fill="#008078" d="M588.3,37l11.4-17.9V-1h-20.1v20.4h7.5L578.2,37C578.2,37,588,37.1,588.3,37z"/>
		<path fill="#1BC19A" d="M591.7,35l11.4-17.9V-3h-21.1v20.4h8.5l-8.9,17.6C581.6,35.1,591.4,35.1,591.7,35z"/>
	</g>
</g>
</svg>
