<?xml version="1.0" encoding="utf-8"?>
<!-- Generator: Adobe Illustrator 18.1.0, SVG Export Plug-In . SVG Version: 6.00 Build 0)  -->
<!DOCTYPE svg PUBLIC "-//W3C//DTD SVG 1.1//EN" "http://www.w3.org/Graphics/SVG/1.1/DTD/svg11.dtd">
<svg version="1.1" id="Camada_1" xmlns="http://www.w3.org/2000/svg" xmlns:xlink="http://www.w3.org/1999/xlink" x="0px" y="0px"
	 viewBox="547.6 -10.4 60 55" enable-background="new 547.6 -10.4 60 55" xml:space="preserve">
<g id="Layer_x0020_1">
	<g id="_622446352">
		<path fill="#008078" d="M593-2.9L581.6,15v20.1h20.1V14.7h-7.5l8.9-17.6C603.1-2.9,593.3-3,593-2.9z"/>
		<path fill="#1BC19A" d="M589.6-0.9L578.2,17v20.1h21.1V16.7h-8.5l8.9-17.6C599.7-0.9,589.9-1,589.6-0.9z"/>
	</g>
	<g id="_622430768">
		<path fill="#008078" d="M566.9-2.9L555.5,15v20.1h20.1V14.7h-7.5l8.9-17.6C577.1-2.9,567.2-3,566.9-2.9z"/>
		<path fill="#1BC19A" d="M563.5-0.9L552.1,17v20.1h21.1V16.7h-8.5l8.9-17.6C573.7-0.9,563.8-1,563.5-0.9z"/>
	</g>
</g>
</svg>
