<?xml version="1.0" encoding="utf-8"?>
<!-- Generator: Adobe Illustrator 18.1.0, SVG Export Plug-In . SVG Version: 6.00 Build 0)  -->
<!DOCTYPE svg PUBLIC "-//W3C//DTD SVG 1.1//EN" "http://www.w3.org/Graphics/SVG/1.1/DTD/svg11.dtd">
<svg version="1.1" id="Camada_1" xmlns="http://www.w3.org/2000/svg" xmlns:xlink="http://www.w3.org/1999/xlink" x="0px" y="0px"
	 viewBox="0 0 35 35" enable-background="new 0 0 35 35" xml:space="preserve">
<path fill="#1BC19A" d="M18.6,3.2l3.9,8c0.2,0.3,0.5,0.6,0.9,0.6l8.8,1.3c1,0.1,1.4,1.3,0.7,2l-6.4,6.2c-0.3,0.3-0.4,0.7-0.3,1
	l1.5,8.7c0.2,1-0.8,1.7-1.7,1.2L18,28.2c-0.3-0.2-0.8-0.2-1.1,0l-7.9,4.1c-0.9,0.5-1.9-0.3-1.7-1.2l1.5-8.7c0.1-0.4-0.1-0.8-0.3-1
	l-6.4-6.2c-0.7-0.7-0.3-1.9,0.7-2l8.8-1.3c0.4-0.1,0.7-0.3,0.9-0.6l3.9-8C16.9,2.3,18.1,2.3,18.6,3.2z"/>
</svg>
