<?xml version="1.0" encoding="utf-8"?>
<!-- Generator: Adobe Illustrator 18.1.0, SVG Export Plug-In . SVG Version: 6.00 Build 0)  -->
<!DOCTYPE svg PUBLIC "-//W3C//DTD SVG 1.1//EN" "http://www.w3.org/Graphics/SVG/1.1/DTD/svg11.dtd">
<svg version="1.1" id="Camada_1" xmlns="http://www.w3.org/2000/svg" xmlns:xlink="http://www.w3.org/1999/xlink" x="0px" y="0px"
	 viewBox="0 0 24 30" enable-background="new 0 0 24 30" xml:space="preserve">
<path fill="#1BC19A" fill-opacity="0.4" d="M12.8,5.2l2.7,5.5c0.1,0.2,0.3,0.4,0.6,0.4l6,0.9c0.7,0.1,1,0.9,0.5,1.4l-4.4,4.3
	c-0.2,0.2-0.3,0.5-0.2,0.7l1,6c0.1,0.7-0.5,1.2-1.2,0.8l-5.5-2.7c-0.2-0.1-0.5-0.1-0.8,0l-5.4,2.8c-0.6,0.3-1.3-0.2-1.2-0.8l1-6
	c0.1-0.3-0.1-0.5-0.2-0.7l-4.4-4.3c-0.5-0.5-0.2-1.3,0.5-1.4l6-0.9c0.3-0.1,0.5-0.2,0.6-0.4l2.7-5.5C11.6,4.6,12.4,4.6,12.8,5.2z"/>
</svg>
