<?xml version="1.0" encoding="utf-8"?>
<!-- Generator: Adobe Illustrator 18.1.0, SVG Export Plug-In . SVG Version: 6.00 Build 0)  -->
<!DOCTYPE svg PUBLIC "-//W3C//DTD SVG 1.1//EN" "http://www.w3.org/Graphics/SVG/1.1/DTD/svg11.dtd">
<svg version="1.1" id="Camada_1" xmlns="http://www.w3.org/2000/svg" xmlns:xlink="http://www.w3.org/1999/xlink" x="0px" y="0px"
	 viewBox="0 0 35 35" enable-background="new 0 0 35 35" xml:space="preserve">
<path fill="#FFFFFF" d="M17.5,8c-4.8,0-8.7,3.9-8.7,8.7v1.6c0,4.8,3.9,8.7,8.7,8.7s8.7-3.9,8.7-8.7v-1.6C26.2,11.9,22.3,8,17.5,8z
	 M24.1,16.8h-0.4v2.4h-0.5v0.6h-0.5v0.3h-3.5v-0.3h-0.6v-0.6H18v-0.7h-0.4v-0.9h-0.4h-0.1h-0.4v0.9h-0.4v0.7h-0.6v0.6h-0.6v0.3h-3.5
	v-0.3h-0.5v-0.6h-0.5v-2.4h-0.4v-0.9h6.1v0.4h0.3v0.2h0.4h0.1h0.4v-0.2H18v-0.4h6.1V16.8z"/>
</svg>
