<?xml version="1.0" encoding="utf-8"?>
<!-- Generator: Adobe Illustrator 18.1.0, SVG Export Plug-In . SVG Version: 6.00 Build 0)  -->
<!DOCTYPE svg PUBLIC "-//W3C//DTD SVG 1.1//EN" "http://www.w3.org/Graphics/SVG/1.1/DTD/svg11.dtd">
<svg version="1.1" id="Camada_1" xmlns="http://www.w3.org/2000/svg" xmlns:xlink="http://www.w3.org/1999/xlink" x="0px" y="0px"
	 viewBox="0 0 42 42" enable-background="new 0 0 42 42" xml:space="preserve">
<g>
	<g opacity="0.5">
		
			<path fill="none" stroke="#8C9397" stroke-width="1.399" stroke-linecap="round" stroke-linejoin="round" stroke-dasharray="2.0987,2.7982" d="
			M36.3,36.2H5.7c-2.6,0-4.8-2.1-4.8-4.8V6c0-2.6,2.1-4.8,4.8-4.8h30.6c2.6,0,4.8,2.1,4.8,4.8v25.3C41.1,34,39,36.2,36.3,36.2z"/>
	</g>
	
		<path fill="none" stroke="#797979" stroke-width="1.399" stroke-linecap="round" stroke-linejoin="round" stroke-miterlimit="10" d="
		M15,21.7c0,0.1,0,0.2,0,0.3c0,3.1,2.5,5.6,5.6,5.6c3.1,0,5.6-2.5,5.6-5.6c0-0.1,0-0.2,0-0.3"/>
	<circle fill="none" stroke="#797979" stroke-width="1.399" stroke-miterlimit="10" cx="13.5" cy="13.7" r="2.1"/>
	
		<path fill="none" stroke="#797979" stroke-width="1.399" stroke-linecap="round" stroke-linejoin="round" stroke-miterlimit="10" d="
		M27.6,12.7c-1.1,0-2,0.9-2.1,2h4.1"/>
</g>
</svg>
