<?xml version="1.0" encoding="utf-8"?>
<!-- Generator: Adobe Illustrator 18.1.0, SVG Export Plug-In . SVG Version: 6.00 Build 0)  -->
<!DOCTYPE svg PUBLIC "-//W3C//DTD SVG 1.1//EN" "http://www.w3.org/Graphics/SVG/1.1/DTD/svg11.dtd">
<svg version="1.1" id="Camada_1" xmlns="http://www.w3.org/2000/svg" xmlns:xlink="http://www.w3.org/1999/xlink" x="0px" y="0px"
	 viewBox="0 0 24 30" enable-background="new 0 0 24 30" xml:space="preserve">
<g>
	
		<path fill="#FFFFFF" stroke="#8C9396" stroke-width="1.2" stroke-linecap="round" stroke-linejoin="round" stroke-miterlimit="10" d="
		M14.8,10.1c0-0.1,0-0.5,0-0.6c0-0.1,0.2-0.5,0.1-0.6c-0.1-0.1-0.3-0.1-0.3-0.1c-0.3-0.3,0-1.3-0.2-1.6c-0.1-0.3-0.8-0.8-1-1.1
		c-0.1-0.3,0-0.8-0.1-1s-1-0.3-1-0.3h-0.5c0,0-0.9,0.1-1,0.3c-0.1,0.2,0,0.7-0.1,0.9c-0.2,0.3-0.8,0.8-1,1.2
		C9.5,7.5,9.7,8.4,9.4,8.8C9.3,8.8,9.1,8.8,9.1,8.9C9,9,9.1,9.4,9.2,9.5c0,0.1,0,0.5,0,0.6"/>
	
		<path fill="#FFFFFF" stroke="#8C9396" stroke-width="1.2" stroke-linecap="round" stroke-linejoin="round" stroke-miterlimit="10" d="
		M9.2,10.1c0.1,0,0.9,1,1,1.1c0.1,0.1,0.2,0.1,0.2,0.2c0,0.1-0.1,0.4-0.2,0.5c-0.3,0.2-0.9,0.3-1.2,0.5c-0.3,0.1-0.9,0.3-1.1,0.5
		c-0.3,0.3-0.6,0.9-0.8,1.3c-0.2,0.5-0.3,1.7-0.3,2.3c0,0.5,0.2,1.4,0.1,1.9c-0.1,0.3-0.5,0.8-0.5,1.1c-0.1,0.4,0,1.3-0.2,1.6
		c-0.3,0.4-1.5,0.5-1.9,0.8c-0.2,0.2-0.5,0.7-0.5,0.9c-0.1,0.4-0.1,1.4,0.1,1.8C4,24.8,4.2,24.9,4.4,25c0.5,0.2,1,0.3,1.6,0.3h12.3
		c0.5,0,1.1-0.1,1.6-0.3c0.2-0.1,0.4-0.2,0.5-0.3c0.3-0.3,0.3-1.4,0.1-1.8c-0.1-0.3-0.3-0.8-0.5-0.9c-0.4-0.3-1.6-0.4-1.9-0.8
		c-0.3-0.3-0.1-1.2-0.2-1.6c-0.1-0.3-0.5-0.8-0.5-1.1c-0.1-0.5,0.1-1.4,0.1-1.9c0-0.5-0.1-1.8-0.3-2.3c-0.1-0.3-0.5-1-0.8-1.3
		c-0.2-0.2-0.8-0.4-1.1-0.5c-0.3-0.1-0.9-0.3-1.2-0.5c-0.1-0.1-0.3-0.3-0.2-0.5c0-0.1,0.1-0.1,0.2-0.2c0.1-0.1,0.7-1.1,0.8-1.1"/>
</g>
</svg>
