<?xml version="1.0" encoding="utf-8"?>
<!-- Generator: Adobe Illustrator 18.1.0, SVG Export Plug-In . SVG Version: 6.00 Build 0)  -->
<!DOCTYPE svg PUBLIC "-//W3C//DTD SVG 1.1//EN" "http://www.w3.org/Graphics/SVG/1.1/DTD/svg11.dtd">
<svg version="1.1" id="Camada_1" xmlns="http://www.w3.org/2000/svg" xmlns:xlink="http://www.w3.org/1999/xlink" x="0px" y="0px"
	 viewBox="0 0 24 30" enable-background="new 0 0 24 30" xml:space="preserve">
<g>
	<path fill="#FFFFFF" stroke="#919191" stroke-miterlimit="10" d="M18.3,15c2.2-2,3.3-4,2.6-5.1c-0.7-1.2-2.9-1.2-5.8-0.3
		c-0.7-2.9-1.9-4.8-3.2-4.8S9.5,6.6,8.8,9.5C6,8.7,3.8,8.7,3.1,9.9S3.5,13,5.7,15c-2.2,2-3.3,4-2.6,5.1c0.7,1.2,2.9,1.2,5.8,0.3
		c0.7,2.9,1.9,4.8,3.2,4.8s2.5-1.9,3.2-4.8c2.8,0.9,5.1,0.8,5.8-0.3C21.6,19,20.5,17,18.3,15z"/>
	
		<ellipse fill="none" stroke="#919191" stroke-width="1.2" stroke-linecap="round" stroke-linejoin="round" stroke-miterlimit="10" cx="12" cy="15" rx="3.7" ry="10.3"/>
	
		<ellipse transform="matrix(-0.866 0.5 -0.5 -0.866 29.892 21.9908)" fill="none" stroke="#919191" stroke-width="1.2" stroke-linecap="round" stroke-linejoin="round" stroke-miterlimit="10" cx="12" cy="15" rx="10.3" ry="3.7"/>
	
		<ellipse transform="matrix(0.866 0.5 -0.5 0.866 9.1078 -3.9906)" fill="none" stroke="#919191" stroke-width="1.2" stroke-linecap="round" stroke-linejoin="round" stroke-miterlimit="10" cx="12" cy="15" rx="10.3" ry="3.7"/>
	
		<circle fill="none" stroke="#919191" stroke-width="1.2" stroke-linecap="round" stroke-linejoin="round" stroke-miterlimit="10" cx="12" cy="15" r="1.4"/>
</g>
</svg>
