<?xml version="1.0" encoding="utf-8"?>
<!-- Generator: Adobe Illustrator 18.1.0, SVG Export Plug-In . SVG Version: 6.00 Build 0)  -->
<!DOCTYPE svg PUBLIC "-//W3C//DTD SVG 1.1//EN" "http://www.w3.org/Graphics/SVG/1.1/DTD/svg11.dtd">
<svg version="1.1" id="Camada_1" xmlns="http://www.w3.org/2000/svg" xmlns:xlink="http://www.w3.org/1999/xlink" x="0px" y="0px"
	 viewBox="0 0 35 35" enable-background="new 0 0 35 35" xml:space="preserve">
<g>
	<path fill="#FFFFFF" stroke="#00B7AD" stroke-linecap="round" stroke-linejoin="round" stroke-miterlimit="10" d="M8.2,32.5h20.4
		c1.2,0,2.2-1,2.2-2.2V16.2H6v14.1C6,31.5,7,32.5,8.2,32.5z"/>
	
		<rect x="6" y="16.2" fill="#FFFFFF" stroke="#00B7AD" stroke-linecap="round" stroke-linejoin="round" stroke-miterlimit="10" width="24.8" height="4.8"/>
	
		<line fill="#FFFFFF" stroke="#00B7AD" stroke-linecap="round" stroke-linejoin="round" stroke-miterlimit="10" x1="6" y1="21" x2="10.8" y2="16.3"/>
	
		<line fill="#FFFFFF" stroke="#00B7AD" stroke-linecap="round" stroke-linejoin="round" stroke-miterlimit="10" x1="10" y1="21" x2="14.8" y2="16.3"/>
	
		<line fill="#FFFFFF" stroke="#00B7AD" stroke-linecap="round" stroke-linejoin="round" stroke-miterlimit="10" x1="14" y1="21" x2="18.8" y2="16.3"/>
	
		<line fill="#FFFFFF" stroke="#00B7AD" stroke-linecap="round" stroke-linejoin="round" stroke-miterlimit="10" x1="18" y1="21" x2="22.8" y2="16.3"/>
	
		<line fill="#FFFFFF" stroke="#00B7AD" stroke-linecap="round" stroke-linejoin="round" stroke-miterlimit="10" x1="22" y1="21" x2="26.8" y2="16.3"/>
	
		<line fill="#FFFFFF" stroke="#00B7AD" stroke-linecap="round" stroke-linejoin="round" stroke-miterlimit="10" x1="26" y1="21" x2="30.8" y2="16.3"/>
	
		<rect x="4.2" y="7" transform="matrix(-0.9265 0.3763 -0.3763 -0.9265 35.4942 11.8311)" fill="#FFFFFF" stroke="#00B7AD" stroke-linecap="round" stroke-linejoin="round" stroke-miterlimit="10" width="24.8" height="4.8"/>
	
		<line fill="#FFFFFF" stroke="#00B7AD" stroke-linecap="round" stroke-linejoin="round" stroke-miterlimit="10" x1="6" y1="16.3" x2="8.7" y2="10"/>
	
		<line fill="#FFFFFF" stroke="#00B7AD" stroke-linecap="round" stroke-linejoin="round" stroke-miterlimit="10" x1="9.7" y1="14.8" x2="12.4" y2="8.5"/>
	
		<line fill="#FFFFFF" stroke="#00B7AD" stroke-linecap="round" stroke-linejoin="round" stroke-miterlimit="10" x1="13.4" y1="13.3" x2="16.1" y2="7"/>
	
		<line fill="#FFFFFF" stroke="#00B7AD" stroke-linecap="round" stroke-linejoin="round" stroke-miterlimit="10" x1="17.1" y1="11.8" x2="19.8" y2="5.5"/>
	
		<line fill="#FFFFFF" stroke="#00B7AD" stroke-linecap="round" stroke-linejoin="round" stroke-miterlimit="10" x1="20.8" y1="10.3" x2="23.5" y2="4"/>
	
		<line fill="#FFFFFF" stroke="#00B7AD" stroke-linecap="round" stroke-linejoin="round" stroke-miterlimit="10" x1="24.5" y1="8.8" x2="27.2" y2="2.5"/>
</g>
</svg>
