<?xml version="1.0" encoding="utf-8"?>
<!-- Generator: Adobe Illustrator 18.1.0, SVG Export Plug-In . SVG Version: 6.00 Build 0)  -->
<!DOCTYPE svg PUBLIC "-//W3C//DTD SVG 1.1//EN" "http://www.w3.org/Graphics/SVG/1.1/DTD/svg11.dtd">
<svg version="1.1" id="Camada_1" xmlns="http://www.w3.org/2000/svg" xmlns:xlink="http://www.w3.org/1999/xlink" x="0px" y="0px"
	 viewBox="0 0 24 30" enable-background="new 0 0 24 30" xml:space="preserve">
<g>
	<path fill="#FFFFFF" stroke="#8C9396" stroke-linecap="round" stroke-linejoin="round" stroke-miterlimit="10" d="M5.6,25.3h14
		c0.8,0,1.5-0.7,1.5-1.5v-9.7h-17v9.7C4.1,24.6,4.8,25.3,5.6,25.3z"/>
	
		<rect x="4.1" y="14.1" fill="#FFFFFF" stroke="#8C9396" stroke-linecap="round" stroke-linejoin="round" stroke-miterlimit="10" width="17" height="3.3"/>
	
		<line fill="none" stroke="#8C9396" stroke-linecap="round" stroke-linejoin="round" stroke-miterlimit="10" x1="4.1" y1="17.4" x2="7.4" y2="14.2"/>
	
		<line fill="none" stroke="#8C9396" stroke-linecap="round" stroke-linejoin="round" stroke-miterlimit="10" x1="6.9" y1="17.4" x2="10.1" y2="14.2"/>
	
		<line fill="none" stroke="#8C9396" stroke-linecap="round" stroke-linejoin="round" stroke-miterlimit="10" x1="9.6" y1="17.4" x2="12.9" y2="14.2"/>
	
		<line fill="none" stroke="#8C9396" stroke-linecap="round" stroke-linejoin="round" stroke-miterlimit="10" x1="12.3" y1="17.4" x2="15.6" y2="14.2"/>
	
		<line fill="none" stroke="#8C9396" stroke-linecap="round" stroke-linejoin="round" stroke-miterlimit="10" x1="15.1" y1="17.4" x2="18.4" y2="14.2"/>
	
		<line fill="none" stroke="#8C9396" stroke-linecap="round" stroke-linejoin="round" stroke-miterlimit="10" x1="17.8" y1="17.4" x2="21.1" y2="14.2"/>
	
		<rect x="2.9" y="7.8" transform="matrix(0.9265 -0.3763 0.3763 0.9265 -2.7108 4.9701)" fill="#FFFFFF" stroke="#8C9396" stroke-linecap="round" stroke-linejoin="round" stroke-miterlimit="10" width="17" height="3.3"/>
	
		<line fill="none" stroke="#8C9396" stroke-linecap="round" stroke-linejoin="round" stroke-miterlimit="10" x1="4.1" y1="14.2" x2="6" y2="9.9"/>
	
		<line fill="none" stroke="#8C9396" stroke-linecap="round" stroke-linejoin="round" stroke-miterlimit="10" x1="6.7" y1="13.1" x2="8.5" y2="8.8"/>
	
		<line fill="none" stroke="#8C9396" stroke-linecap="round" stroke-linejoin="round" stroke-miterlimit="10" x1="9.2" y1="12.1" x2="11" y2="7.8"/>
	
		<line fill="none" stroke="#8C9396" stroke-linecap="round" stroke-linejoin="round" stroke-miterlimit="10" x1="11.7" y1="11.1" x2="13.6" y2="6.8"/>
	
		<line fill="none" stroke="#8C9396" stroke-linecap="round" stroke-linejoin="round" stroke-miterlimit="10" x1="14.3" y1="10.1" x2="16.1" y2="5.7"/>
	
		<line fill="none" stroke="#8C9396" stroke-linecap="round" stroke-linejoin="round" stroke-miterlimit="10" x1="16.8" y1="9" x2="18.7" y2="4.7"/>
</g>
</svg>
