<?xml version="1.0" encoding="utf-8"?>
<!-- Generator: Adobe Illustrator 18.1.0, SVG Export Plug-In . SVG Version: 6.00 Build 0)  -->
<!DOCTYPE svg PUBLIC "-//W3C//DTD SVG 1.1//EN" "http://www.w3.org/Graphics/SVG/1.1/DTD/svg11.dtd">
<svg version="1.1" id="Camada_1" xmlns="http://www.w3.org/2000/svg" xmlns:xlink="http://www.w3.org/1999/xlink" x="0px" y="0px"
	 viewBox="0 0 24 30" enable-background="new 0 0 24 30" xml:space="preserve">
<path fill="#FFFFFF" stroke="#8C9396" stroke-width="1.2" stroke-linecap="round" stroke-linejoin="round" stroke-miterlimit="10" d="
	M18.9,10.7h-3.2c-0.6,0-1.2-0.5-1.2-1.2l0.1-3.6c0-0.6-0.5-1.2-1.2-1.2h-3.2c-0.6,0-1.2,0.5-1.2,1.2l0.1,3.6c0,0.6-0.5,1.2-1.2,1.2
	H5.1c-0.8,0-1.3,0.7-1.1,1.4L4.4,14c0.1,0.5,0.5,0.9,1.1,0.9h3.1c0.6,0,1.1,0.5,1.2,1.1l0.3,8.2c0,0.6,0.5,1.1,1.2,1.1h1.5
	c0.6,0,1.1-0.5,1.2-1.1l0.3-8.2c0-0.6,0.5-1.1,1.2-1.1h3.1c0.5,0,1-0.3,1.1-0.9l0.4-1.9C20.2,11.4,19.6,10.7,18.9,10.7z"/>
</svg>
