<?xml version="1.0" encoding="utf-8"?>
<!-- Generator: Adobe Illustrator 18.1.0, SVG Export Plug-In . SVG Version: 6.00 Build 0)  -->
<!DOCTYPE svg PUBLIC "-//W3C//DTD SVG 1.1//EN" "http://www.w3.org/Graphics/SVG/1.1/DTD/svg11.dtd">
<svg version="1.1" id="Camada_1" xmlns="http://www.w3.org/2000/svg" xmlns:xlink="http://www.w3.org/1999/xlink" x="0px" y="0px"
	 viewBox="0 0 24 30" enable-background="new 0 0 24 30" xml:space="preserve">
<g>
	<path fill="#FFFFFF" stroke="#8C9396" stroke-width="0.93" stroke-miterlimit="22.9256" d="M1.4,15c0,0.1,0.1,0.3,0.3,0.3l7.5,1
		c0.3,0,0.4,0.3,0.2,0.5l-2.7,3.4c-0.1,0.1-0.8,1-0.7,1.2c0.1,0.1,1-0.6,1.2-0.8l3.4-2.8c0.2-0.2,0.5-0.1,0.5,0.2l0.5,7.2
		c0,0.2,0.1,1,0.3,1c0.1,0,0.3-0.8,0.3-1l0.9-7.1c0-0.3,0.3-0.4,0.5-0.2l3.2,2.2c0.1,0.1,1,0.8,1.2,0.7c0.1-0.1-0.6-1-0.7-1.1
		l-2.4-2.9c-0.2-0.2-0.1-0.5,0.2-0.5l7.2-0.9c0.2,0,0.3-0.1,0.3-0.3 M22.6,15c0-0.1-0.1-0.3-0.3-0.3l-7.5-1c-0.3,0-0.4-0.3-0.2-0.5
		l2.7-3.4c0.1-0.1,0.8-1,0.7-1.2c-0.1-0.1-1,0.5-1.2,0.7l-3.4,2.8c-0.2,0.2-0.5,0.1-0.5-0.2l-0.5-7.2c-0.1-0.2-0.2-1-0.3-1
		c-0.1,0-0.3,0.8-0.3,1l-0.9,7.2c0,0.3-0.3,0.4-0.5,0.2L7.1,9.9C7,9.8,6.1,9.2,6,9.2c-0.1,0.1,0.6,1,0.7,1.1l2.4,2.9
		c0.2,0.2,0.1,0.5-0.2,0.5l-7.2,0.9c-0.2,0-0.3,0.1-0.3,0.3"/>
</g>
</svg>
