<?xml version="1.0" encoding="utf-8"?>
<!-- Generator: Adobe Illustrator 18.1.0, SVG Export Plug-In . SVG Version: 6.00 Build 0)  -->
<!DOCTYPE svg PUBLIC "-//W3C//DTD SVG 1.1//EN" "http://www.w3.org/Graphics/SVG/1.1/DTD/svg11.dtd">
<svg version="1.1" id="Camada_1" xmlns="http://www.w3.org/2000/svg" xmlns:xlink="http://www.w3.org/1999/xlink" x="0px" y="0px"
	 viewBox="0 0 24 30" enable-background="new 0 0 24 30" xml:space="preserve">
<g>
	<path fill="#FFFFFF" stroke="#8C9396" stroke-linecap="round" stroke-linejoin="round" stroke-miterlimit="10" d="M19.3,9
		c-0.6-2.1-2.1-3.5-4.2-4.1c-1.9-0.5-3.7,0.7-4,2.6C11.1,8.2,11,9,11,9.9c0,2.7,0,5.4,0,8.1c0,0.1,0,0.3,0,0.4
		c-0.8-0.2-1.6-0.5-2.2-1.2c-1.1-1-1.6-2.3-1.8-3.8c-0.1-1-0.1-2.1-0.1-3.2c0.1-1,0.3-2.1,0.8-3.1C8.3,6.2,9.1,5.6,10,5.3
		c0.3-0.1,0.2-0.3,0.2-0.4c0-0.1-0.2-0.1-0.3-0.1c-0.3,0-0.6,0.1-1,0.1c-2.5,0.6-4.3,2.7-4.7,5.1c-0.2,1.2-0.1,2.3,0.1,3.4
		c0.5,2.7,2.5,4.8,5.1,5.4c0.5,0.1,1,0.2,1.5,0.3v5.3c0,0.5,0.3,0.8,0.8,0.8s0.8-0.3,0.8-0.8v-5.3c0.5-0.1,0.9-0.1,1.3-0.2
		c1.5-0.3,2.9-1,3.8-2.2C19.7,14.5,20.2,11.8,19.3,9z M16.8,15.3c-0.5,1.3-1.5,2.2-2.8,2.7c-0.4,0.1-0.8,0.2-1.3,0.3
		c0-0.1,0-0.2,0-0.3c0-3.2,0-6.4,0-9.7c0-0.2,0-0.5,0.1-0.7c0.2-1.1,1-1.5,2.1-1.1c0.7,0.3,1.2,0.9,1.6,1.6c0.6,1,0.9,2.1,1,3.3
		C17.4,12.8,17.3,14.1,16.8,15.3z"/>
</g>
</svg>
