<?xml version="1.0" encoding="utf-8"?>
<!-- Generator: Adobe Illustrator 18.1.0, SVG Export Plug-In . SVG Version: 6.00 Build 0)  -->
<!DOCTYPE svg PUBLIC "-//W3C//DTD SVG 1.1//EN" "http://www.w3.org/Graphics/SVG/1.1/DTD/svg11.dtd">
<svg version="1.1" id="Camada_1" xmlns="http://www.w3.org/2000/svg" xmlns:xlink="http://www.w3.org/1999/xlink" x="0px" y="0px"
	 viewBox="0 0 35 35" enable-background="new 0 0 35 35" xml:space="preserve">
<g>
	<path fill="#FFFFFF" stroke="#00B7AD" stroke-linecap="round" stroke-linejoin="round" stroke-miterlimit="10" d="M28.2,8.7
		c-0.9-3-3-5.1-6.1-6c-2.7-0.7-5.4,1-5.8,3.8c-0.1,1.1-0.2,2.3-0.2,3.5c0,3.9,0,7.9,0,11.8c0,0.2,0,0.4,0,0.6
		c-1.2-0.3-2.3-0.8-3.2-1.7c-1.6-1.5-2.3-3.4-2.6-5.6c-0.2-1.5-0.2-3.1-0.1-4.6C10.3,9,10.6,7.4,11.4,6c0.7-1.3,1.8-2.2,3.2-2.6
		c0.4-0.1,0.3-0.4,0.3-0.6c0-0.1-0.3-0.2-0.4-0.2c-0.5,0-0.9,0.1-1.4,0.2c-3.7,0.9-6.2,3.9-6.8,7.5c-0.3,1.7-0.2,3.4,0.1,5
		c0.7,3.9,3.6,7,7.5,7.9c0.7,0.2,1.4,0.3,2.2,0.4v7.7c0,0.7,0.5,1.2,1.2,1.2c0.7,0,1.2-0.5,1.2-1.2v-7.7c0.7-0.1,1.3-0.2,1.9-0.3
		c2.2-0.5,4.2-1.4,5.6-3.2C28.8,16.7,29.5,12.8,28.2,8.7z M24.5,18c-0.8,1.9-2.2,3.2-4.1,3.9c-0.6,0.2-1.2,0.3-1.9,0.5
		c0-0.2,0-0.3,0-0.4c0-4.7,0-9.4,0-14.1c0-0.3,0-0.7,0.1-1c0.3-1.6,1.5-2.2,3.1-1.6c1,0.4,1.7,1.3,2.3,2.3c0.9,1.5,1.3,3.1,1.4,4.8
		C25.4,14.3,25.3,16.2,24.5,18z"/>
</g>
</svg>
