<?xml version="1.0" encoding="utf-8"?>
<!-- Generator: Adobe Illustrator 18.1.0, SVG Export Plug-In . SVG Version: 6.00 Build 0)  -->
<!DOCTYPE svg PUBLIC "-//W3C//DTD SVG 1.1//EN" "http://www.w3.org/Graphics/SVG/1.1/DTD/svg11.dtd">
<svg version="1.1" id="Camada_1" xmlns="http://www.w3.org/2000/svg" xmlns:xlink="http://www.w3.org/1999/xlink" x="0px" y="0px"
	 viewBox="0 0 24 30" enable-background="new 0 0 24 30" xml:space="preserve">
<g>
	<g>
		<path fill="#FFFFFF" stroke="#8C9396" stroke-miterlimit="10" d="M2.2,19.6c0.6,2.5,1.9,4.4,4.4,5.3c1.6,0.6,3.2,0.5,4.7-0.4
			c1.7-1.2,2.1-2.9,1.7-4.9c-0.1-0.7-0.4-1.4-0.6-2.1c0.2,0,0.4,0.1,0.6,0.1c1.2,0.1,2.3-0.3,2.9-1.2c0.3-0.4,0.5-0.9,0.9-1.4
			c0.3-0.4,0.6-0.9,1-1.2c0.9-0.8,2.1-0.5,2.6,0.6c0.4,1,0.5,1.9,0.3,2.9c-0.3,1.8-1.6,3.1-3.4,3.3c-1.5,0.1-2.5-0.7-2.8-2.1
			c0-0.1,0-0.2-0.1-0.3c-0.1,0.2-0.2,0.3-0.2,0.5c0,0.8,0,1.6,0.1,2.4c0.4,1.7,1.9,2.7,3.6,2.5c1.6-0.2,2.7-1.2,3.4-2.6
			c1.1-2.5,1-5.1-0.4-7.5c-1.6-2.8-4.8-2.7-6.4-0.5c-0.5,0.6-0.8,1.4-1.2,2.1c-0.2,0.3-0.5,0.8-0.8,1c-0.4,0.4-0.9,0.5-1.4,0.3
			c-0.4-0.1-0.8-0.3-1.2-0.5c1.2-0.7,1.9-1.6,2.2-2.9c0.3-1.9-0.7-3.6-2.5-3.9C9,9,8.3,9,7.7,9c-1.4,0.1-2.5,0.7-3.6,1.4
			C4,10.5,3.9,10.7,4,10.9c0.4,0.8,0.8,1.6,1.2,2.3c0.9-0.4,1.7-0.9,2.5-1.3c0.8-0.3,1.5-0.3,2.3,0.1c0.5,0.2,0.7,0.6,0.8,1.2
			c0,0.5-0.2,0.9-0.7,1.1c-0.3,0.1-0.7,0.3-1,0.4c-0.8,0.1-1.6,0-2.5,0c0.3,1,0.7,2.1,1,3.1c0.7-0.1,1.3-0.2,1.9-0.1
			c1.2,0.1,2.1,1.1,1.9,2.3c-0.1,1-0.7,1.7-1.6,2.1c-2,1-4.4,0.3-5.7-1.4c-1.1-1.4-1.7-3.2-1.9-4.9c0,0.1-0.1,0.3-0.1,0.5
			C1.8,17.3,1.9,18.4,2.2,19.6z"/>
		<path fill="#FFFFFF" stroke="#8C9396" stroke-miterlimit="10" d="M20.3,9c-0.6-0.8-1.2-1.4-1.7-2.1c-3.4,2.9-6.2,2.7-8-1
			c0,0.3,0,0.5,0,0.8c0.1,1.8,1.5,3.6,3.2,4.2c1.9,0.6,3.6,0.1,5.3-0.9C19.5,9.7,19.9,9.4,20.3,9z"/>
		<path fill="#FFFFFF" stroke="#8C9396" stroke-miterlimit="10" d="M16.4,6.6c-0.6-0.6-1.3-1.2-2-1.9c-0.6,0.7-1.2,1.3-1.9,2
			c0.7,0.6,1.3,1.2,2,1.8C15.2,7.9,15.8,7.3,16.4,6.6z"/>
	</g>
	<g>
		<path fill="none" stroke="#8C9396" stroke-miterlimit="10" d="M2.2,19.6c0.6,2.5,1.9,4.4,4.4,5.3c1.6,0.6,3.2,0.5,4.7-0.4
			c1.7-1.2,2.1-2.9,1.7-4.9c-0.1-0.7-0.4-1.4-0.6-2.1c0.2,0,0.4,0.1,0.6,0.1c1.2,0.1,2.3-0.3,2.9-1.2c0.3-0.4,0.5-0.9,0.9-1.4
			c0.3-0.4,0.6-0.9,1-1.2c0.9-0.8,2.1-0.5,2.6,0.6c0.4,1,0.5,1.9,0.3,2.9c-0.3,1.8-1.6,3.1-3.4,3.3c-1.5,0.1-2.5-0.7-2.8-2.1
			c0-0.1,0-0.2-0.1-0.3c-0.1,0.2-0.2,0.3-0.2,0.5c0,0.8,0,1.6,0.1,2.4c0.4,1.7,1.9,2.7,3.6,2.5c1.6-0.2,2.7-1.2,3.4-2.6
			c1.1-2.5,1-5.1-0.4-7.5c-1.6-2.8-4.8-2.7-6.4-0.5c-0.5,0.6-0.8,1.4-1.2,2.1c-0.2,0.3-0.5,0.8-0.8,1c-0.4,0.4-0.9,0.5-1.4,0.3
			c-0.4-0.1-0.8-0.3-1.2-0.5c1.2-0.7,1.9-1.6,2.2-2.9c0.3-1.9-0.7-3.6-2.5-3.9C9,9,8.3,9,7.7,9c-1.4,0.1-2.5,0.7-3.6,1.4
			C4,10.5,3.9,10.7,4,10.9c0.4,0.8,0.8,1.6,1.2,2.3c0.9-0.4,1.7-0.9,2.5-1.3c0.8-0.3,1.5-0.3,2.3,0.1c0.5,0.2,0.7,0.6,0.8,1.2
			c0,0.5-0.2,0.9-0.7,1.1c-0.3,0.1-0.7,0.3-1,0.4c-0.8,0.1-1.6,0-2.5,0c0.3,1,0.7,2.1,1,3.1c0.7-0.1,1.3-0.2,1.9-0.1
			c1.2,0.1,2.1,1.1,1.9,2.3c-0.1,1-0.7,1.7-1.6,2.1c-2,1-4.4,0.3-5.7-1.4c-1.1-1.4-1.7-3.2-1.9-4.9c0,0.1-0.1,0.3-0.1,0.5
			C1.8,17.3,1.9,18.4,2.2,19.6z"/>
		<path fill="none" stroke="#8C9396" stroke-miterlimit="10" d="M20.3,9c-0.6-0.8-1.2-1.4-1.7-2.1c-3.4,2.9-6.2,2.7-8-1
			c0,0.3,0,0.5,0,0.8c0.1,1.8,1.5,3.6,3.2,4.2c1.9,0.6,3.6,0.1,5.3-0.9C19.5,9.7,19.9,9.4,20.3,9z"/>
		<path fill="none" stroke="#8C9396" stroke-miterlimit="10" d="M16.4,6.6c-0.6-0.6-1.3-1.2-2-1.9c-0.6,0.7-1.2,1.3-1.9,2
			c0.7,0.6,1.3,1.2,2,1.8C15.2,7.9,15.8,7.3,16.4,6.6z"/>
	</g>
	<g>
		<path fill="none" stroke="#8C9396" stroke-linecap="round" stroke-linejoin="round" stroke-miterlimit="10" d="M2.2,19.6
			c0.6,2.5,1.9,4.4,4.4,5.3c1.6,0.6,3.2,0.5,4.7-0.4c1.7-1.2,2.1-2.9,1.7-4.9c-0.1-0.7-0.4-1.4-0.6-2.1c0.2,0,0.4,0.1,0.6,0.1
			c1.2,0.1,2.3-0.3,2.9-1.2c0.3-0.4,0.5-0.9,0.9-1.4c0.3-0.4,0.6-0.9,1-1.2c0.9-0.8,2.1-0.5,2.6,0.6c0.4,1,0.5,1.9,0.3,2.9
			c-0.3,1.8-1.6,3.1-3.4,3.3c-1.5,0.1-2.5-0.7-2.8-2.1c0-0.1,0-0.2-0.1-0.3c-0.1,0.2-0.2,0.3-0.2,0.5c0,0.8,0,1.6,0.1,2.4
			c0.4,1.7,1.9,2.7,3.6,2.5c1.6-0.2,2.7-1.2,3.4-2.6c1.1-2.5,1-5.1-0.4-7.5c-1.6-2.8-4.8-2.7-6.4-0.5c-0.5,0.6-0.8,1.4-1.2,2.1
			c-0.2,0.3-0.5,0.8-0.8,1c-0.4,0.4-0.9,0.5-1.4,0.3c-0.4-0.1-0.8-0.3-1.2-0.5c1.2-0.7,1.9-1.6,2.2-2.9c0.3-1.9-0.7-3.6-2.5-3.9
			C9,9,8.3,9,7.7,9c-1.4,0.1-2.5,0.7-3.6,1.4C4,10.5,3.9,10.7,4,10.9c0.4,0.8,0.8,1.6,1.2,2.3c0.9-0.4,1.7-0.9,2.5-1.3
			c0.8-0.3,1.5-0.3,2.3,0.1c0.5,0.2,0.7,0.6,0.8,1.2c0,0.5-0.2,0.9-0.7,1.1c-0.3,0.1-0.7,0.3-1,0.4c-0.8,0.1-1.6,0-2.5,0
			c0.3,1,0.7,2.1,1,3.1c0.7-0.1,1.3-0.2,1.9-0.1c1.2,0.1,2.1,1.1,1.9,2.3c-0.1,1-0.7,1.7-1.6,2.1c-2,1-4.4,0.3-5.7-1.4
			c-1.1-1.4-1.7-3.2-1.9-4.9c0,0.1-0.1,0.3-0.1,0.5C1.8,17.3,1.9,18.4,2.2,19.6z"/>
		<path fill="none" stroke="#8C9396" stroke-linecap="round" stroke-linejoin="round" stroke-miterlimit="10" d="M20.3,9
			c-0.6-0.8-1.2-1.4-1.7-2.1c-3.4,2.9-6.2,2.7-8-1c0,0.3,0,0.5,0,0.8c0.1,1.8,1.5,3.6,3.2,4.2c1.9,0.6,3.6,0.1,5.3-0.9
			C19.5,9.7,19.9,9.4,20.3,9z"/>
		<path fill="none" stroke="#8C9396" stroke-linecap="round" stroke-linejoin="round" stroke-miterlimit="10" d="M16.4,6.6
			c-0.6-0.6-1.3-1.2-2-1.9c-0.6,0.7-1.2,1.3-1.9,2c0.7,0.6,1.3,1.2,2,1.8C15.2,7.9,15.8,7.3,16.4,6.6z"/>
	</g>
</g>
</svg>
