<?xml version="1.0" encoding="utf-8"?>
<!-- Generator: Adobe Illustrator 18.1.0, SVG Export Plug-In . SVG Version: 6.00 Build 0)  -->
<!DOCTYPE svg PUBLIC "-//W3C//DTD SVG 1.1//EN" "http://www.w3.org/Graphics/SVG/1.1/DTD/svg11.dtd">
<svg version="1.1" id="Camada_1" xmlns="http://www.w3.org/2000/svg" xmlns:xlink="http://www.w3.org/1999/xlink" x="0px" y="0px"
	 viewBox="0 0 24 30" enable-background="new 0 0 24 30" xml:space="preserve">
<g>
	<g>
		<g>
			<path fill="#FFFFFF" stroke="#919191" stroke-miterlimit="10" d="M4.8,22.4c2.3,1.2,4.9,1.2,7.1,0.3c-0.5-2.3-2-4.4-4.3-5.6
				c-1.9-1-4-1.2-6-0.7c-0.6,0.1-1,0.8-0.8,1.4C1.5,19.8,2.9,21.4,4.8,22.4z"/>
			<path fill="#FFFFFF" stroke="#919191" stroke-miterlimit="10" d="M19.2,22.4c-2.3,1.2-4.9,1.2-7.1,0.3c0.5-2.3,2-4.4,4.3-5.6
				c1.9-1,4-1.2,6-0.7c0.6,0.1,1,0.8,0.8,1.4C22.5,19.8,21.1,21.4,19.2,22.4z"/>
		</g>
		<g>
			
				<path fill="#FFFFFF" stroke="#919191" stroke-width="0.2645" stroke-linecap="round" stroke-linejoin="round" stroke-miterlimit="10" d="
				M4.8,22.4c2.3,1.2,4.9,1.2,7.1,0.3c-0.5-2.3-2-4.4-4.3-5.6c-1.9-1-4-1.2-6-0.7c-0.6,0.1-1,0.8-0.8,1.4
				C1.5,19.8,2.9,21.4,4.8,22.4z"/>
			
				<path fill="#FFFFFF" stroke="#919191" stroke-width="0.2645" stroke-linecap="round" stroke-linejoin="round" stroke-miterlimit="10" d="
				M19.2,22.4c-2.3,1.2-4.9,1.2-7.1,0.3c0.5-2.3,2-4.4,4.3-5.6c1.9-1,4-1.2,6-0.7c0.6,0.1,1,0.8,0.8,1.4
				C22.5,19.8,21.1,21.4,19.2,22.4z"/>
		</g>
		<g>
			
				<path fill="none" stroke="#919191" stroke-width="1.308" stroke-linecap="round" stroke-linejoin="round" stroke-miterlimit="10" d="
				M4.8,22.4c2.3,1.2,4.9,1.2,7.1,0.3c-0.5-2.3-2-4.4-4.3-5.6c-1.9-1-4-1.2-6-0.7c-0.6,0.1-1,0.8-0.8,1.4
				C1.5,19.8,2.9,21.4,4.8,22.4z"/>
			
				<path fill="none" stroke="#919191" stroke-width="1.308" stroke-linecap="round" stroke-linejoin="round" stroke-miterlimit="10" d="
				M19.2,22.4c-2.3,1.2-4.9,1.2-7.1,0.3c0.5-2.3,2-4.4,4.3-5.6c1.9-1,4-1.2,6-0.7c0.6,0.1,1,0.8,0.8,1.4
				C22.5,19.8,21.1,21.4,19.2,22.4z"/>
		</g>
	</g>
	<g>
		<g>
			<path fill="#FFFFFF" stroke="#919191" stroke-miterlimit="10" d="M4.7,18.3c1.7,2.5,4.3,4,7.1,4.4c0.8-2.7,0.5-5.8-1.2-8.3
				c-1.5-2.3-3.7-3.7-6.1-4.2c-0.6-0.1-1.2,0.3-1.3,0.8C2.8,13.5,3.3,16.1,4.7,18.3z"/>
			<path fill="#FFFFFF" stroke="#919191" stroke-miterlimit="10" d="M19.3,18.3c-1.7,2.5-4.3,4-7.1,4.4c-0.8-2.7-0.5-5.8,1.2-8.3
				c1.5-2.3,3.7-3.7,6.1-4.2c0.6-0.1,1.2,0.3,1.3,0.8C21.2,13.5,20.7,16.1,19.3,18.3z"/>
		</g>
		<g>
			
				<path fill="#FFFFFF" stroke="#919191" stroke-width="0.3154" stroke-linecap="round" stroke-linejoin="round" stroke-miterlimit="10" d="
				M4.7,18.3c1.7,2.5,4.3,4,7.1,4.4c0.8-2.7,0.5-5.8-1.2-8.3c-1.5-2.3-3.7-3.7-6.1-4.2c-0.6-0.1-1.2,0.3-1.3,0.8
				C2.8,13.5,3.3,16.1,4.7,18.3z"/>
			
				<path fill="#FFFFFF" stroke="#919191" stroke-width="0.3154" stroke-linecap="round" stroke-linejoin="round" stroke-miterlimit="10" d="
				M19.3,18.3c-1.7,2.5-4.3,4-7.1,4.4c-0.8-2.7-0.5-5.8,1.2-8.3c1.5-2.3,3.7-3.7,6.1-4.2c0.6-0.1,1.2,0.3,1.3,0.8
				C21.2,13.5,20.7,16.1,19.3,18.3z"/>
		</g>
		<g>
			
				<path fill="none" stroke="#919191" stroke-width="1.308" stroke-linecap="round" stroke-linejoin="round" stroke-miterlimit="10" d="
				M4.7,18.3c1.7,2.5,4.3,4,7.1,4.4c0.8-2.7,0.5-5.8-1.2-8.3c-1.5-2.3-3.7-3.7-6.1-4.2c-0.6-0.1-1.2,0.3-1.3,0.8
				C2.8,13.5,3.3,16.1,4.7,18.3z"/>
			
				<path fill="none" stroke="#919191" stroke-width="1.308" stroke-linecap="round" stroke-linejoin="round" stroke-miterlimit="10" d="
				M19.3,18.3c-1.7,2.5-4.3,4-7.1,4.4c-0.8-2.7-0.5-5.8,1.2-8.3c1.5-2.3,3.7-3.7,6.1-4.2c0.6-0.1,1.2,0.3,1.3,0.8
				C21.2,13.5,20.7,16.1,19.3,18.3z"/>
		</g>
	</g>
	
		<path fill="#FFFFFF" stroke="#919191" stroke-width="1.308" stroke-linecap="round" stroke-linejoin="round" stroke-miterlimit="10" d="
		M8.2,14.5c0,3.3,1.5,6.2,3.8,8.2c2.3-2,3.8-4.9,3.8-8.2c0-2.9-1.2-5.6-3.1-7.5c-0.4-0.4-1.1-0.4-1.5,0C9.3,8.8,8.2,11.5,8.2,14.5z"
		/>
</g>
</svg>
