<?xml version="1.0" encoding="utf-8"?>
<!-- Generator: Adobe Illustrator 18.1.0, SVG Export Plug-In . SVG Version: 6.00 Build 0)  -->
<!DOCTYPE svg PUBLIC "-//W3C//DTD SVG 1.1//EN" "http://www.w3.org/Graphics/SVG/1.1/DTD/svg11.dtd">
<svg version="1.1" id="Camada_1" xmlns="http://www.w3.org/2000/svg" xmlns:xlink="http://www.w3.org/1999/xlink" x="0px" y="0px"
	 viewBox="0 0 35 35" enable-background="new 0 0 35 35" xml:space="preserve">
<g>
	<g>
		<g>
			<path fill="#FFFFFF" d="M7,28.3c3.3,1.7,7.1,1.8,10.3,0.5c-0.7-3.4-2.9-6.4-6.2-8.2c-2.8-1.5-5.9-1.7-8.7-1
				c-0.9,0.2-1.4,1.2-1.1,2.1C2.2,24.5,4.2,26.9,7,28.3z"/>
			<path fill="#FFFFFF" d="M28,28.3c-3.3,1.7-7.1,1.8-10.3,0.5c0.7-3.4,2.9-6.4,6.2-8.2c2.8-1.5,5.9-1.7,8.7-1
				c0.9,0.2,1.4,1.2,1.1,2.1C32.8,24.5,30.8,26.9,28,28.3z"/>
		</g>
		<g>
			
				<path fill="#FFFFFF" stroke="#000000" stroke-width="0.2645" stroke-linecap="round" stroke-linejoin="round" stroke-miterlimit="10" d="
				M7,28.3c3.3,1.7,7.1,1.8,10.3,0.5c-0.7-3.4-2.9-6.4-6.2-8.2c-2.8-1.5-5.9-1.7-8.7-1c-0.9,0.2-1.4,1.2-1.1,2.1
				C2.2,24.5,4.2,26.9,7,28.3z"/>
			
				<path fill="#FFFFFF" stroke="#000000" stroke-width="0.2645" stroke-linecap="round" stroke-linejoin="round" stroke-miterlimit="10" d="
				M28,28.3c-3.3,1.7-7.1,1.8-10.3,0.5c0.7-3.4,2.9-6.4,6.2-8.2c2.8-1.5,5.9-1.7,8.7-1c0.9,0.2,1.4,1.2,1.1,2.1
				C32.8,24.5,30.8,26.9,28,28.3z"/>
		</g>
		<g>
			
				<path fill="none" stroke="#00B7AD" stroke-width="1.308" stroke-linecap="round" stroke-linejoin="round" stroke-miterlimit="10" d="
				M7,28.3c3.3,1.7,7.1,1.8,10.3,0.5c-0.7-3.4-2.9-6.4-6.2-8.2c-2.8-1.5-5.9-1.7-8.7-1c-0.9,0.2-1.4,1.2-1.1,2.1
				C2.2,24.5,4.2,26.9,7,28.3z"/>
			
				<path fill="none" stroke="#00B7AD" stroke-width="1.308" stroke-linecap="round" stroke-linejoin="round" stroke-miterlimit="10" d="
				M28,28.3c-3.3,1.7-7.1,1.8-10.3,0.5c0.7-3.4,2.9-6.4,6.2-8.2c2.8-1.5,5.9-1.7,8.7-1c0.9,0.2,1.4,1.2,1.1,2.1
				C32.8,24.5,30.8,26.9,28,28.3z"/>
		</g>
	</g>
	<g>
		<g>
			<path fill="#FFFFFF" d="M6.9,22.3c2.5,3.7,6.3,5.9,10.4,6.4c1.2-4,0.7-8.4-1.8-12.1c-2.2-3.3-5.4-5.4-8.9-6.1
				c-0.9-0.2-1.7,0.4-1.9,1.2C4.1,15.3,4.8,19.1,6.9,22.3z"/>
			<path fill="#FFFFFF" d="M28.1,22.3c-2.5,3.7-6.3,5.9-10.4,6.4c-1.2-4-0.7-8.4,1.8-12.1c2.2-3.3,5.4-5.4,8.9-6.1
				c0.9-0.2,1.7,0.4,1.9,1.2C30.9,15.3,30.2,19.1,28.1,22.3z"/>
		</g>
		<g>
			
				<path fill="#FFFFFF" stroke="#000000" stroke-width="0.3154" stroke-linecap="round" stroke-linejoin="round" stroke-miterlimit="10" d="
				M6.9,22.3c2.5,3.7,6.3,5.9,10.4,6.4c1.2-4,0.7-8.4-1.8-12.1c-2.2-3.3-5.4-5.4-8.9-6.1c-0.9-0.2-1.7,0.4-1.9,1.2
				C4.1,15.3,4.8,19.1,6.9,22.3z"/>
			
				<path fill="#FFFFFF" stroke="#000000" stroke-width="0.3154" stroke-linecap="round" stroke-linejoin="round" stroke-miterlimit="10" d="
				M28.1,22.3c-2.5,3.7-6.3,5.9-10.4,6.4c-1.2-4-0.7-8.4,1.8-12.1c2.2-3.3,5.4-5.4,8.9-6.1c0.9-0.2,1.7,0.4,1.9,1.2
				C30.9,15.3,30.2,19.1,28.1,22.3z"/>
		</g>
		<g>
			
				<path fill="none" stroke="#00B7AD" stroke-width="1.308" stroke-linecap="round" stroke-linejoin="round" stroke-miterlimit="10" d="
				M6.9,22.3c2.5,3.7,6.3,5.9,10.4,6.4c1.2-4,0.7-8.4-1.8-12.1c-2.2-3.3-5.4-5.4-8.9-6.1c-0.9-0.2-1.7,0.4-1.9,1.2
				C4.1,15.3,4.8,19.1,6.9,22.3z"/>
			
				<path fill="none" stroke="#00B7AD" stroke-width="1.308" stroke-linecap="round" stroke-linejoin="round" stroke-miterlimit="10" d="
				M28.1,22.3c-2.5,3.7-6.3,5.9-10.4,6.4c-1.2-4-0.7-8.4,1.8-12.1c2.2-3.3,5.4-5.4,8.9-6.1c0.9-0.2,1.7,0.4,1.9,1.2
				C30.9,15.3,30.2,19.1,28.1,22.3z"/>
		</g>
	</g>
	
		<path fill="#FFFFFF" stroke="#00B7AD" stroke-width="1.308" stroke-linecap="round" stroke-linejoin="round" stroke-miterlimit="10" d="
		M11.9,16.7c0,4.8,2.2,9.1,5.6,12c3.4-2.9,5.6-7.2,5.6-12c0-4.3-1.7-8.1-4.5-11c-0.6-0.6-1.6-0.6-2.2,0
		C13.6,8.5,11.9,12.4,11.9,16.7z"/>
</g>
</svg>
