<?xml version="1.0" encoding="utf-8"?>
<!-- Generator: Adobe Illustrator 18.1.0, SVG Export Plug-In . SVG Version: 6.00 Build 0)  -->
<!DOCTYPE svg PUBLIC "-//W3C//DTD SVG 1.1//EN" "http://www.w3.org/Graphics/SVG/1.1/DTD/svg11.dtd">
<svg version="1.1" id="Camada_1" xmlns="http://www.w3.org/2000/svg" xmlns:xlink="http://www.w3.org/1999/xlink" x="0px" y="0px"
	 viewBox="0 0 24 30" enable-background="new 0 0 24 30" xml:space="preserve">
<g>
	
		<circle fill="#FFFFFF" stroke="#8C9396" stroke-width="1.2" stroke-linecap="round" stroke-linejoin="round" stroke-miterlimit="10" cx="12" cy="15.1" r="10.2"/>
	
		<path fill="#FFFFFF" stroke="#8C9396" stroke-width="1.2" stroke-linecap="round" stroke-linejoin="round" stroke-miterlimit="10" d="
		M12,15.1"/>
	<path fill="none" stroke="#8C9396" stroke-width="1.2" stroke-linecap="round" stroke-linejoin="round" stroke-miterlimit="10" d="
		M19.8,8.3C18,9.9,15.1,11,11.9,11c-3,0-5.8-1-7.7-2.5"/>
	<path fill="none" stroke="#8C9396" stroke-width="1.2" stroke-linecap="round" stroke-linejoin="round" stroke-miterlimit="10" d="
		M12,25.3c3.8,0,7-4.6,7-10.2S15.8,4.8,12,4.8S5,9.4,5,15.1S8.2,25.3,12,25.3z"/>
	<path fill="none" stroke="#8C9396" stroke-width="1.2" stroke-linecap="round" stroke-linejoin="round" stroke-miterlimit="10" d="
		M19.8,21.8c-1.9-1.6-4.7-2.7-7.9-2.7c-3,0-5.8,1-7.7,2.5"/>
	
		<line fill="none" stroke="#8C9396" stroke-width="1.2" stroke-linecap="round" stroke-linejoin="round" stroke-miterlimit="10" x1="12" y1="4.7" x2="12" y2="24.9"/>
	
		<line fill="none" stroke="#8C9396" stroke-width="1.2" stroke-linecap="round" stroke-linejoin="round" stroke-miterlimit="10" x1="1.7" y1="15.6" x2="22.3" y2="15.6"/>
</g>
</svg>
