<?xml version="1.0" encoding="utf-8"?>
<!-- Generator: Adobe Illustrator 18.1.0, SVG Export Plug-In . SVG Version: 6.00 Build 0)  -->
<!DOCTYPE svg PUBLIC "-//W3C//DTD SVG 1.1//EN" "http://www.w3.org/Graphics/SVG/1.1/DTD/svg11.dtd">
<svg version="1.1" id="Camada_1" xmlns="http://www.w3.org/2000/svg" xmlns:xlink="http://www.w3.org/1999/xlink" x="0px" y="0px"
	 viewBox="0 0 35 35" enable-background="new 0 0 35 35" xml:space="preserve">
<g>
	
		<circle fill="#FFFFFF" stroke="#00B7AD" stroke-width="1.2" stroke-linecap="round" stroke-linejoin="round" stroke-miterlimit="10" cx="17.5" cy="17.6" r="14.9"/>
	
		<path fill="#FFFFFF" stroke="#00B7AD" stroke-width="1.2" stroke-linecap="round" stroke-linejoin="round" stroke-miterlimit="10" d="
		M17.5,17.6"/>
	<path fill="none" stroke="#00B7AD" stroke-width="1.2" stroke-linecap="round" stroke-linejoin="round" stroke-miterlimit="10" d="
		M28.9,7.7c-2.7,2.4-6.9,3.9-11.5,3.9c-4.4,0-8.4-1.4-11.2-3.6"/>
	<path fill="none" stroke="#00B7AD" stroke-width="1.2" stroke-linecap="round" stroke-linejoin="round" stroke-miterlimit="10" d="
		M17.5,32.5c5.6,0,10.2-6.7,10.2-14.9S23.1,2.6,17.5,2.6S7.3,9.3,7.3,17.6S11.9,32.5,17.5,32.5z"/>
	<path fill="none" stroke="#00B7AD" stroke-width="1.2" stroke-linecap="round" stroke-linejoin="round" stroke-miterlimit="10" d="
		M28.9,27.4c-2.7-2.4-6.9-3.9-11.5-3.9c-4.4,0-8.4,1.4-11.2,3.6"/>
	
		<line fill="#FFFFFF" stroke="#00B7AD" stroke-width="1.2" stroke-linecap="round" stroke-linejoin="round" stroke-miterlimit="10" x1="17.5" y1="2.5" x2="17.5" y2="32"/>
	
		<line fill="#FFFFFF" stroke="#00B7AD" stroke-width="1.2" stroke-linecap="round" stroke-linejoin="round" stroke-miterlimit="10" x1="2.5" y1="18.4" x2="32.5" y2="18.4"/>
</g>
</svg>
