<?xml version="1.0" encoding="utf-8"?>
<!-- Generator: Adobe Illustrator 18.1.0, SVG Export Plug-In . SVG Version: 6.00 Build 0)  -->
<!DOCTYPE svg PUBLIC "-//W3C//DTD SVG 1.1//EN" "http://www.w3.org/Graphics/SVG/1.1/DTD/svg11.dtd">
<svg version="1.1" id="Camada_1" xmlns="http://www.w3.org/2000/svg" xmlns:xlink="http://www.w3.org/1999/xlink" x="0px" y="0px"
	 viewBox="0 0 24 30" enable-background="new 0 0 24 30" xml:space="preserve">
<g>
	<path fill="none" stroke="#919191" stroke-miterlimit="10" d="M22.2,13.8"/>
	<path fill="none" stroke="#919191" stroke-miterlimit="10" d="M22.2,13.8"/>
	<g>
		
			<path fill="#FFFFFF" stroke="#919191" stroke-width="1.2" stroke-linecap="round" stroke-linejoin="round" stroke-miterlimit="10" d="
			M22.2,13.8c0.1,0.4,0.1,0.8,0.1,1.2c0,5.7-4.6,10.3-10.3,10.3S1.7,20.7,1.7,15S6.8,4.7,12.5,4.7c0.2,0-0.2,0,0,0
			c-3.8,0.7-6.5,4-6.5,8c0,4.5,3.6,8.2,8.2,8.2C18.3,20.9,21.7,17.8,22.2,13.8"/>
		
			<polygon fill="#FFFFFF" stroke="#919191" stroke-width="1.2" stroke-linecap="round" stroke-linejoin="round" stroke-miterlimit="10" points="
			20.2,12.9 17.1,13.2 15.5,15.9 14.3,13.1 11.2,12.4 13.6,10.4 13.3,7.3 16,8.9 18.8,7.6 18.1,10.7 		"/>
	</g>
</g>
</svg>
