<?xml version="1.0" encoding="utf-8"?>
<!-- Generator: Adobe Illustrator 18.1.0, SVG Export Plug-In . SVG Version: 6.00 Build 0)  -->
<!DOCTYPE svg PUBLIC "-//W3C//DTD SVG 1.1//EN" "http://www.w3.org/Graphics/SVG/1.1/DTD/svg11.dtd">
<svg version="1.1" id="Camada_1" xmlns="http://www.w3.org/2000/svg" xmlns:xlink="http://www.w3.org/1999/xlink" x="0px" y="0px"
	 viewBox="0 0 24 30" enable-background="new 0 0 24 30" xml:space="preserve">
<path fill="#FFFFFF" d="M18.2,15l2.8-4.8c0.1-0.2,0-0.4-0.3-0.4h-5.6l-2.9-4.9c-0.1-0.2-0.4-0.2-0.5,0L8.8,9.8H3.2
	C3,9.8,2.9,10,2.9,10.2L5.8,15l-2.8,4.8c-0.1,0.2,0,0.5,0.3,0.5h5.6l2.9,4.9c0.1,0.2,0.3,0.2,0.5,0l2.9-4.9h5.6
	c0.2,0,0.4-0.3,0.3-0.5L18.2,15z"/>
<path fill="#8C9396" stroke="#FFFFFF" stroke-width="0.15" stroke-miterlimit="10" d="M20.7,20.2H3.3c-0.2,0-0.4-0.3-0.3-0.5
	l8.7-14.9c0.1-0.2,0.4-0.2,0.5,0L21,19.7C21.1,19.9,21,20.2,20.7,20.2z M5,19.3h13.9c0.2,0,0.4-0.3,0.3-0.5L12.3,6.8
	c-0.1-0.2-0.4-0.2-0.5,0L4.8,18.8C4.7,19,4.8,19.3,5,19.3z"/>
<path fill="#8C9396" stroke="#FFFFFF" stroke-width="0.15" stroke-miterlimit="10" d="M11.7,25.1L3,10.2C2.9,10,3,9.8,3.3,9.8h17.6
	c0.2,0,0.3,0.2,0.3,0.4l-8.8,14.9C12.1,25.4,11.9,25.4,11.7,25.1z M4.7,11.2l7,12c0.1,0.2,0.3,0.2,0.5,0l7-12c0.1-0.2,0-0.4-0.3-0.4
	H5C4.8,10.7,4.7,11,4.7,11.2z"/>
</svg>
