<?xml version="1.0" encoding="utf-8"?>
<!-- Generator: Adobe Illustrator 18.1.0, SVG Export Plug-In . SVG Version: 6.00 Build 0)  -->
<!DOCTYPE svg PUBLIC "-//W3C//DTD SVG 1.1//EN" "http://www.w3.org/Graphics/SVG/1.1/DTD/svg11.dtd">
<svg version="1.1" id="Camada_1" xmlns="http://www.w3.org/2000/svg" xmlns:xlink="http://www.w3.org/1999/xlink" x="0px" y="0px"
	 viewBox="0 0 24 30" enable-background="new 0 0 24 30" xml:space="preserve">
<g>
	<circle fill="#FAFAFA" stroke="#919191" stroke-miterlimit="10" cx="17.3" cy="9.6" r="5.1"/>
	<circle fill="#FAFAFA" stroke="#919191" stroke-miterlimit="10" cx="15.2" cy="20.4" r="5.1"/>
	<circle fill="#FAFAFA" stroke="#919191" stroke-miterlimit="10" cx="6.7" cy="13" r="5.1"/>
	<g>
		
			<path fill="none" stroke="#919191" stroke-width="1.2" stroke-linecap="round" stroke-linejoin="round" stroke-miterlimit="10" d="
			M16.5,15.5c-3.2-1-5-4.5-4-7.6c0.8-2.5,3.6-4,6.1-3.2c2.1,0.6,3.2,2.8,2.5,4.9c-0.5,1.6-2.3,2.5-3.9,2.1c-1.3-0.4-2.1-1.8-1.6-3.2
			c0.3-1,1.4-1.6,2.5-1.3c0.8,0.3,1.3,1.2,1,2.1c-0.2,0.7-1,1-1.6,0.8c-0.5-0.1-0.8-0.8-0.7-1.3"/>
		
			<path fill="none" stroke="#919191" stroke-width="1.2" stroke-linecap="round" stroke-linejoin="round" stroke-miterlimit="10" d="
			M6.2,13.8c0.5-0.1,0.9-0.7,0.8-1.2c-0.1-0.6-0.8-1.1-1.5-1c-0.9,0.2-1.4,1-1.2,1.9c0.2,1.1,1.3,1.8,2.4,1.5
			c1.4-0.3,2.2-1.6,1.9-2.9c-0.3-1.7-2.1-2.7-3.7-2.4c-2.1,0.5-3.4,2.5-2.9,4.7c0.6,2.6,3.2,4.3,5.8,3.7c3.2-0.7,5.3-4,4.6-7.3"/>
		
			<path fill="none" stroke="#919191" stroke-width="1.2" stroke-linecap="round" stroke-linejoin="round" stroke-miterlimit="10" d="
			M10.4,16.7c2.5-2.3,6.3-2.1,8.6,0.3c1.9,2,1.7,5.1-0.3,6.9c-1.6,1.4-4,1.4-5.5-0.2c-1.2-1.3-1.1-3.2,0.2-4.4c1-1,2.6-0.9,3.5,0.1
			c0.8,0.8,0.7,2.1-0.1,2.8c-0.8,0.7-1.7,0.6-2.3-0.1c-0.5-0.5-0.4-1.3,0.1-1.8c0.4-0.4,1.1-0.3,1.4,0.1"/>
	</g>
</g>
</svg>
