<?xml version="1.0" encoding="utf-8"?>
<!-- Generator: Adobe Illustrator 18.1.0, SVG Export Plug-In . SVG Version: 6.00 Build 0)  -->
<!DOCTYPE svg PUBLIC "-//W3C//DTD SVG 1.1//EN" "http://www.w3.org/Graphics/SVG/1.1/DTD/svg11.dtd">
<svg version="1.1" id="Camada_1" xmlns="http://www.w3.org/2000/svg" xmlns:xlink="http://www.w3.org/1999/xlink" x="0px" y="0px"
	 viewBox="0 0 24 30" enable-background="new 0 0 24 30" xml:space="preserve">
<g>
	
		<line fill="none" stroke="#8C9396" stroke-width="1.2" stroke-linecap="round" stroke-linejoin="round" stroke-miterlimit="10" x1="9" y1="23.4" x2="15" y2="23.4"/>
	
		<line fill="none" stroke="#8C9396" stroke-width="1.2" stroke-linecap="round" stroke-linejoin="round" stroke-miterlimit="10" x1="9" y1="25.3" x2="15" y2="25.3"/>
	
		<path fill="#FFFFFF" stroke="#8C9396" stroke-width="1.2" stroke-linecap="round" stroke-linejoin="round" stroke-miterlimit="10" d="
		M8.6,18.5c0.1,0.1,0.1,0.2,0.1,0.3c0.1,0.1,0.1,1,0.1,1.9c0.1,0.7,0.6,1.2,1.2,1.2h3.6c0.7,0,1.2-0.5,1.2-1.2
		c0.1-0.8,0.1-1.7,0.1-1.9c0-0.1,0-0.3,0.1-0.3c2.1-1,4.2-3.6,4.2-6.3c0-4.2-3.4-7.5-7.5-7.5S4.4,8,4.4,12.2
		C4.5,14.9,6.2,17.4,8.6,18.5z"/>
	
		<polyline fill="#FFFFFF" stroke="#8C9396" stroke-width="1.2" stroke-linecap="round" stroke-linejoin="round" stroke-miterlimit="10" points="
		8,12.8 9.5,11.2 10.7,12.8 12.1,11.2 13.3,12.8 14.7,11.2 16,12.8 	"/>
</g>
</svg>
