<?xml version="1.0" encoding="utf-8"?>
<!-- Generator: Adobe Illustrator 18.1.0, SVG Export Plug-In . SVG Version: 6.00 Build 0)  -->
<!DOCTYPE svg PUBLIC "-//W3C//DTD SVG 1.1//EN" "http://www.w3.org/Graphics/SVG/1.1/DTD/svg11.dtd">
<svg version="1.1" id="Camada_1" xmlns="http://www.w3.org/2000/svg" xmlns:xlink="http://www.w3.org/1999/xlink" x="0px" y="0px"
	 viewBox="0 0 35 35" enable-background="new 0 0 35 35" xml:space="preserve">
<g>
	
		<line fill="#FFFFFF" stroke="#00B7AD" stroke-width="1.2" stroke-linecap="round" stroke-linejoin="round" stroke-miterlimit="10" x1="13.1" y1="29.8" x2="21.9" y2="29.8"/>
	
		<line fill="#FFFFFF" stroke="#00B7AD" stroke-width="1.2" stroke-linecap="round" stroke-linejoin="round" stroke-miterlimit="10" x1="13.1" y1="32.5" x2="21.9" y2="32.5"/>
	
		<path fill="#FFFFFF" stroke="#00B7AD" stroke-width="1.2" stroke-linecap="round" stroke-linejoin="round" stroke-miterlimit="10" d="
		M12.6,22.6c0.2,0.1,0.2,0.3,0.2,0.5c0.1,0.2,0.1,1.5,0.2,2.7c0.1,1,0.9,1.7,1.8,1.7h5.3c1,0,1.8-0.8,1.8-1.7
		c0.1-1.2,0.1-2.5,0.2-2.7c0-0.1,0-0.4,0.2-0.5c3.1-1.4,6.1-5.3,6.1-9.2c0-6.1-4.9-11-11-11c-6.1,0-11,4.9-11,11
		C6.5,17.3,9.1,21,12.6,22.6z"/>
	
		<polyline fill="#FFFFFF" stroke="#00B7AD" stroke-width="1.2" stroke-linecap="round" stroke-linejoin="round" stroke-miterlimit="10" points="
		11.7,14.3 13.8,12 15.6,14.3 17.6,12 19.4,14.3 21.4,12 23.3,14.3 	"/>
</g>
</svg>
