<?xml version="1.0" encoding="utf-8"?>
<!-- Generator: Adobe Illustrator 18.1.0, SVG Export Plug-In . SVG Version: 6.00 Build 0)  -->
<!DOCTYPE svg PUBLIC "-//W3C//DTD SVG 1.1//EN" "http://www.w3.org/Graphics/SVG/1.1/DTD/svg11.dtd">
<svg version="1.1" id="Camada_1" xmlns="http://www.w3.org/2000/svg" xmlns:xlink="http://www.w3.org/1999/xlink" x="0px" y="0px"
	 viewBox="0 0 24 30" enable-background="new 0 0 24 30" xml:space="preserve">
<g>
	
		<path fill="#FFFFFF" stroke="#8C9396" stroke-width="1.3685" stroke-linecap="round" stroke-linejoin="round" stroke-miterlimit="10" d="
		M11.7,8.9h-6c-2.2,0-4,1.8-4,4v3.4c0,2.2,1.8,4,4,4h1.4C6.6,21.9,6,23.6,6,23.6l4-3.3h1.6c2.2,0,4-1.8,4-4v-3.4
		C15.7,10.7,13.9,8.9,11.7,8.9z"/>
	
		<path fill="#FFFFFF" stroke="#8C9396" stroke-width="1.3685" stroke-linecap="round" stroke-linejoin="round" stroke-miterlimit="10" d="
		M13.8,6.4h5.1c1.9,0,3.5,1.6,3.5,3.5v2.9c0,1.9-1.6,3.5-3.5,3.5h-1.2c0.5,1.4,0.9,2.9,0.9,2.9l-3.4-2.9h-1.2
		c-1.9,0-3.5-1.6-3.5-3.5V9.9C10.3,8,11.9,6.4,13.8,6.4z"/>
</g>
</svg>
