<?xml version="1.0" encoding="utf-8"?>
<!-- Generator: Adobe Illustrator 18.1.0, SVG Export Plug-In . SVG Version: 6.00 Build 0)  -->
<!DOCTYPE svg PUBLIC "-//W3C//DTD SVG 1.1//EN" "http://www.w3.org/Graphics/SVG/1.1/DTD/svg11.dtd">
<svg version="1.1" id="Camada_1" xmlns="http://www.w3.org/2000/svg" xmlns:xlink="http://www.w3.org/1999/xlink" x="0px" y="0px"
	 viewBox="0 0 24 30" enable-background="new 0 0 24 30" xml:space="preserve">
<g>
	<path fill="#FFFFFF" stroke="#8C9396" stroke-linecap="round" stroke-linejoin="round" stroke-miterlimit="10" d="M1.7,6.4
		c0,0.2,0,0.4,0,0.6c0.1,0,0.1,0,0.1,0c0.3,0,0.6,0,1,0C3,7,3.2,7,3.4,7.3c0,0.1,0.1,0.1,0.1,0.3C3.5,7.7,3.6,8,3.6,8.2
		c0,1,0,2.1,0,3.1c0,0.8,0.1,1.6,0.2,2.3c0.1,0.5,0.3,1.1,0.5,1.6c0.3,0.7,0.8,1.2,1.4,1.6c0.3,0.2,0.8,0.4,1.2,0.5
		c1.2,0.4,2.3,0.7,3.6,0.8c0.1,0,0.1,0,0.1,0c0,0.1,0,0.1,0,0.1c0,0.9,0,1.9,0,2.7c0,0.1,0,0.3,0,0.5c0,0.3-0.1,0.6-0.3,0.8
		c-0.1,0.3-0.4,0.5-0.8,0.6C9.4,23,9.2,23,9,23c-0.3,0-0.5,0-0.8,0c0,0-0.1,0-0.1,0c0,0.2,0,0.3,0,0.5c2.5,0,5.1,0,7.6,0
		c0-0.1,0-0.4,0-0.5c-0.1,0-0.1,0-0.1,0c-0.3,0-0.6,0-0.9,0c-0.3,0-0.6-0.1-0.9-0.3c-0.2-0.2-0.3-0.4-0.4-0.7
		c-0.1-0.3-0.1-0.6-0.1-1c0-0.9,0-1.9,0-2.7v-0.1h0.1c0.3-0.1,0.7-0.1,1-0.1c0.7-0.1,1.3-0.2,1.9-0.4c0.6-0.2,1.2-0.4,1.8-0.8
		c0.6-0.3,1-0.8,1.4-1.4c0.2-0.4,0.4-0.9,0.5-1.3c0.2-0.9,0.3-1.8,0.3-2.7c0-1,0-2.1,0-3.1c0-0.1,0-0.3,0-0.4c0-0.2,0.1-0.4,0.2-0.6
		C20.8,7.1,21,7,21.3,7c0.3,0,0.6,0,1,0h0.1c0-0.2,0-0.4,0-0.6h-0.1c-0.6,0-1.2,0-1.9,0c-0.1,0-0.3,0-0.4,0.1
		c-0.5,0.1-1,0.4-1.3,0.9c-0.3,0.3-0.5,0.8-0.6,1.2c-0.2,0.5-0.3,1.2-0.3,1.8c0,0.5,0,1,0,1.6c0,0.8,0,1.6-0.1,2.4
		c-0.1,0.4-0.1,0.8-0.3,1.2c-0.3,0.7-0.7,1.2-1.4,1.6c-0.3,0.1-0.7,0.3-1.1,0.3c-0.4,0.1-0.8,0.1-1.2,0.2c-0.1,0-0.2,0-0.3,0
		c0-0.1,0-0.1,0-0.1c0-2.9,0-5.9,0-8.8c0-0.2,0-0.3,0.1-0.5c0.1-0.4,0.3-0.7,0.6-0.9c0.1-0.1,0.3-0.2,0.5-0.2C14.9,7,15.3,7,15.6,7
		c0.1,0,0.1,0,0.2,0c0-0.2,0-0.4,0-0.6c-2.5,0-5.1,0-7.6,0c0,0.2,0,0.4,0,0.6c0.1,0,0.1,0,0.1,0C8.6,7,8.9,7,9.2,7
		c0.3,0.1,0.5,0.1,0.8,0.2c0.4,0.2,0.6,0.5,0.7,0.9c0,0.2,0.1,0.4,0.1,0.6c0,1.9,0,3.8,0,5.8c0,1,0,2,0,2.9c0,0.1,0,0.1,0,0.1
		c-0.1,0-0.1,0-0.1,0c-0.3,0-0.8-0.1-1.1-0.1c-0.4-0.1-0.8-0.2-1.2-0.3c-0.8-0.3-1.2-0.8-1.5-1.6c-0.1-0.5-0.3-1-0.3-1.4
		c-0.1-0.5-0.1-1-0.1-1.5c0-0.5,0-1.2,0-1.7c0-0.5,0-1-0.1-1.4C6.1,8.9,6,8.4,5.8,8C5.6,7.6,5.3,7.2,5,6.9C4.6,6.6,4.1,6.4,3.6,6.4
		C2.9,6.4,2.4,6.4,1.7,6.4L1.7,6.4z"/>
</g>
</svg>
