<?xml version="1.0" encoding="utf-8"?>
<!-- Generator: Adobe Illustrator 18.1.0, SVG Export Plug-In . SVG Version: 6.00 Build 0)  -->
<!DOCTYPE svg PUBLIC "-//W3C//DTD SVG 1.1//EN" "http://www.w3.org/Graphics/SVG/1.1/DTD/svg11.dtd">
<svg version="1.1" id="Camada_1" xmlns="http://www.w3.org/2000/svg" xmlns:xlink="http://www.w3.org/1999/xlink" x="0px" y="0px"
	 viewBox="0 0 35 35" enable-background="new 0 0 35 35" xml:space="preserve">
<g>
	<path fill="#FFFFFF" stroke="#00B7AD" stroke-linecap="round" stroke-linejoin="round" stroke-miterlimit="10" d="M2.5,4.9
		c0,0.3,0,0.6,0,0.9c0.1,0,0.1,0,0.2,0c0.5,0,0.9,0,1.4,0c0.3,0,0.6,0.1,0.8,0.4C4.9,6.3,5,6.4,5,6.6c0.1,0.3,0.2,0.7,0.2,1
		c0,1.5,0,3,0,4.5c0,1.2,0.1,2.3,0.3,3.4c0.2,0.8,0.4,1.6,0.8,2.3c0.5,1,1.2,1.8,2.1,2.4c0.5,0.3,1.1,0.6,1.7,0.8
		c1.7,0.6,3.4,1,5.2,1.1c0.1,0,0.1,0,0.2,0c0,0.1,0,0.1,0,0.1c0,1.3,0,2.7,0,4c0,0.2,0,0.5,0,0.7c0,0.4-0.2,0.9-0.4,1.2
		c-0.2,0.4-0.6,0.7-1.1,0.9c-0.3,0.1-0.6,0.1-0.9,0.2c-0.4,0-0.7,0-1.1,0c0,0-0.1,0-0.2,0c0,0.3,0,0.5,0,0.7c3.7,0,7.4,0,11.1,0
		c0-0.2,0-0.6,0-0.7c-0.1,0-0.1,0-0.2,0c-0.4,0-0.9,0-1.3,0c-0.5,0-0.9-0.2-1.3-0.5c-0.3-0.3-0.5-0.6-0.6-1
		c-0.1-0.5-0.2-0.9-0.2-1.4c0-1.3,0-2.7,0-4c0,0,0-0.1,0-0.1c0,0,0.1,0,0.1,0c0.5-0.1,1-0.1,1.5-0.2c1-0.1,1.9-0.3,2.8-0.6
		c0.9-0.3,1.8-0.6,2.6-1.1c0.9-0.5,1.5-1.2,2-2.1c0.3-0.6,0.6-1.3,0.8-1.9c0.3-1.3,0.5-2.6,0.5-3.9c0-1.5,0-3,0-4.5
		c0-0.2,0-0.4,0-0.6c0-0.3,0.1-0.6,0.3-0.9C30.3,6,30.6,5.8,31,5.8c0.5,0,0.9,0,1.4,0c0,0,0.1,0,0.1,0c0-0.3,0-0.6,0-0.9
		c0,0-0.1,0-0.1,0c-0.9,0-1.8,0-2.7,0c-0.2,0-0.4,0-0.6,0.1c-0.8,0.2-1.4,0.6-1.9,1.3c-0.4,0.5-0.7,1.1-0.9,1.8
		c-0.3,0.8-0.4,1.7-0.4,2.6c0,0.8,0,1.5,0,2.3c0,1.2,0,2.3-0.2,3.5c-0.1,0.6-0.2,1.2-0.4,1.7c-0.4,1-1,1.8-2,2.3
		c-0.5,0.2-1,0.4-1.6,0.5c-0.6,0.1-1.2,0.2-1.8,0.3c-0.2,0-0.3,0-0.5,0c0-0.1,0-0.1,0-0.1c0-4.3,0-8.6,0-12.8c0-0.3,0-0.5,0.1-0.8
		c0.1-0.6,0.4-1,0.9-1.3C20.6,6.1,20.8,6,21.1,6c0.6-0.2,1.2-0.2,1.7-0.2c0.1,0,0.2,0,0.3,0c0-0.3,0-0.6,0-0.9c-3.7,0-7.4,0-11.1,0
		c0,0.3,0,0.6,0,0.9c0.1,0,0.1,0,0.1,0c0.4,0,0.9,0,1.3,0.1c0.4,0.1,0.7,0.1,1.1,0.3c0.6,0.3,0.9,0.7,1,1.3c0,0.3,0.1,0.6,0.1,0.9
		c0,2.8,0,5.6,0,8.4c0,1.4,0,2.9,0,4.3c0,0.1,0,0.1,0,0.2c-0.1,0-0.1,0-0.2,0c-0.5,0-1.1-0.1-1.6-0.2c-0.6-0.1-1.2-0.3-1.8-0.5
		c-1.1-0.5-1.8-1.2-2.2-2.4c-0.2-0.7-0.4-1.4-0.4-2.1c-0.1-0.7-0.1-1.5-0.1-2.2c0-0.8,0-1.7,0-2.5c0-0.7,0-1.4-0.1-2.1
		C8.9,8.6,8.7,7.9,8.4,7.3C8.2,6.7,7.8,6.1,7.3,5.7C6.7,5.2,6,4.9,5.2,4.9c-0.9,0-1.7,0-2.6,0C2.6,4.9,2.5,4.9,2.5,4.9z"/>
</g>
</svg>
