<?xml version="1.0" encoding="utf-8"?>
<!-- Generator: Adobe Illustrator 18.1.0, SVG Export Plug-In . SVG Version: 6.00 Build 0)  -->
<!DOCTYPE svg PUBLIC "-//W3C//DTD SVG 1.1//EN" "http://www.w3.org/Graphics/SVG/1.1/DTD/svg11.dtd">
<svg version="1.1" id="Camada_1" xmlns="http://www.w3.org/2000/svg" xmlns:xlink="http://www.w3.org/1999/xlink" x="0px" y="0px"
	 viewBox="0 0 24 30" enable-background="new 0 0 24 30" xml:space="preserve">
<g>
	
		<path fill="#FFFFFF" stroke="#8C9396" stroke-width="1.2" stroke-linecap="round" stroke-linejoin="round" stroke-miterlimit="10" d="
		M12.7,5.6l2.6,5.2c0.1,0.2,0.3,0.4,0.5,0.4l5.8,0.8c0.6,0.1,0.9,0.9,0.4,1.3l-4.2,4c-0.2,0.2-0.3,0.4-0.2,0.7l1,5.8
		c0.1,0.6-0.5,1.1-1.1,0.8l-5.1-2.7c-0.2-0.1-0.5-0.1-0.7,0l-5.1,2.7c-0.5,0.3-1.2-0.2-1.1-0.8l1-5.8c0.1-0.3-0.1-0.5-0.2-0.7
		l-4.2-4c-0.5-0.5-0.2-1.2,0.4-1.3l5.8-0.8c0.3-0.1,0.5-0.2,0.5-0.4l2.6-5.2C11.6,5.1,12.4,5.1,12.7,5.6z"/>
	
		<line fill="none" stroke="#8C9396" stroke-width="1.4" stroke-linecap="round" stroke-linejoin="round" stroke-miterlimit="10" x1="9.6" y1="14.5" x2="9.6" y2="16.6"/>
	
		<line fill="none" stroke="#8C9396" stroke-width="1.4" stroke-linecap="round" stroke-linejoin="round" stroke-miterlimit="10" x1="14.6" y1="14.5" x2="14.6" y2="16.6"/>
</g>
</svg>
