<?xml version="1.0" encoding="utf-8"?>
<!-- Generator: Adobe Illustrator 18.1.0, SVG Export Plug-In . SVG Version: 6.00 Build 0)  -->
<!DOCTYPE svg PUBLIC "-//W3C//DTD SVG 1.1//EN" "http://www.w3.org/Graphics/SVG/1.1/DTD/svg11.dtd">
<svg version="1.1" id="Camada_1" xmlns="http://www.w3.org/2000/svg" xmlns:xlink="http://www.w3.org/1999/xlink" x="0px" y="0px"
	 viewBox="0 0 24 30" enable-background="new 0 0 24 30" xml:space="preserve">
<path fill="#FFFFFF" stroke="#8C9396" stroke-width="1.028" stroke-linecap="round" stroke-linejoin="round" stroke-miterlimit="10" d="
	M23.3,16.9c0-0.4-1-0.7-3.6-1c-0.5-3-3.8-5.3-7.7-5.3S4.7,12.9,4.2,16c-2.3,0.2-3.5,0.5-3.5,0.9s1.2,0.9,3.6,1.2
	c0.7,2.9,3.8,5.1,7.7,5.1s7-2.2,7.7-5C22.2,17.7,23.3,17.3,23.3,16.9z"/>
<circle fill="none" stroke="#8C9396" stroke-width="0.9424" stroke-linecap="round" stroke-linejoin="round" stroke-miterlimit="10" cx="12.1" cy="16.9" r="1.3"/>
<circle fill="none" stroke="#8C9396" stroke-width="0.8567" stroke-linecap="round" stroke-linejoin="round" stroke-miterlimit="10" cx="16.2" cy="16.9" r="0.8"/>
<circle fill="none" stroke="#8C9396" stroke-width="0.8567" stroke-linecap="round" stroke-linejoin="round" stroke-miterlimit="10" cx="8.2" cy="16.9" r="0.8"/>
<circle fill="#FFFFFF" stroke="#8C9396" stroke-width="0.8567" stroke-miterlimit="10" cx="12.1" cy="6.8" r="1.3"/>
<line fill="none" stroke="#8C9396" stroke-width="1.1994" stroke-miterlimit="10" x1="12.1" y1="7.9" x2="12.1" y2="11.8"/>
</svg>
