<?xml version="1.0" encoding="utf-8"?>
<!-- Generator: Adobe Illustrator 18.1.0, SVG Export Plug-In . SVG Version: 6.00 Build 0)  -->
<!DOCTYPE svg PUBLIC "-//W3C//DTD SVG 1.1//EN" "http://www.w3.org/Graphics/SVG/1.1/DTD/svg11.dtd">
<svg version="1.1" id="Camada_1" xmlns="http://www.w3.org/2000/svg" xmlns:xlink="http://www.w3.org/1999/xlink" x="0px" y="0px"
	 viewBox="0 0 60 66" enable-background="new 0 0 60 66" xml:space="preserve">
<g>
	<rect fill="#0076E8" width="60" height="66"/>
	<path fill="#FFFFFF" d="M51.1,49.7V34.1c-0.2-0.4-0.4-0.5-0.6-0.4c-0.2-0.1-0.4,0.1-0.7,0.6c-0.1,1.4-0.8,3.4-2,6
		c-3.5,5.8-9,8.7-16.5,8.7c-3.3,0-6.4-0.9-9.1-2.7c-2.7-1.8-4.6-4.3-5.7-7.5c-1.2-3.5-1.8-7.1-1.8-10.9c0-7,2-12.6,5.9-16.6
		c2.7-2.8,6.4-4.1,10.9-4.1c2,0,3.9,0.3,5.9,0.8c3.1,0.9,5.8,2.8,8.1,5.7c2.2,2.9,3.5,5.9,3.9,9.2c0.2,0.5,0.6,0.6,1.1,0.5
		c0.1,0,0.3-0.2,0.4-0.5V6.9c0-0.6-0.5-0.7-1.4-0.5c-0.2,0.5-0.4,1.2-0.8,2.1c-0.5,0.6-1.2,0.9-2.1,0.9c-0.6,0-1.8-0.4-3.7-1.1
		c-4.6-1.8-8.7-2.6-12.3-2.5c-4.2,0.2-8.2,1.4-11.9,3.5c-3.7,2.2-6.8,5.1-9.2,8.8c-1.8,2.8-2.8,6.1-2.8,10c0,4.2,1,7.9,3.1,11.1
		c4.7,7.2,11.8,10.8,21.1,10.8c1.3,0,2.7-0.1,4.1-0.3c1.4-0.2,3.3-0.6,5.6-1.3c2.5-0.7,4.4-1.2,5.6-1.4c0.7-0.1,1.4,0.2,2.1,0.9
		c0.5,0.7,0.9,1.4,1.4,2.1C50.5,50.1,50.9,50,51.1,49.7z"/>
	<g>
		<path fill="#FFFFFF" d="M30.5,50 M32.1,48 M28.3,49.4h2.1l-0.7,1.7c1.4,0.4,2.5,1,3.2,1.8c0.7,0.9,1.1,1.9,1.1,3.1
			c0,1.6-0.7,3.1-2.1,4.3s-3.1,1.9-5.3,1.9c-0.8,0-1.9-0.1-3.2-0.2v-1.5c0.6,0.1,1.2,0.1,1.6,0.1c1.2,0,2.1-0.4,2.9-1.1
			c0.8-0.8,1.2-1.6,1.2-2.6c0-0.7-0.3-1.3-0.8-1.8c-0.5-0.5-1.2-0.8-1.9-0.8c-0.2,0-0.5,0-0.9,0.1L28.3,49.4z"/>
	</g>
</g>
</svg>
