<?xml version="1.0" encoding="utf-8"?>
<!-- Generator: Adobe Illustrator 18.1.0, SVG Export Plug-In . SVG Version: 6.00 Build 0)  -->
<!DOCTYPE svg PUBLIC "-//W3C//DTD SVG 1.1//EN" "http://www.w3.org/Graphics/SVG/1.1/DTD/svg11.dtd">
<svg version="1.1" id="Camada_1" xmlns="http://www.w3.org/2000/svg" xmlns:xlink="http://www.w3.org/1999/xlink" x="0px" y="0px"
	 viewBox="0 0 60 66" enable-background="new 0 0 60 66" xml:space="preserve">
<g>
	<rect fill="#0076E8" width="60" height="66"/>
	<path fill="#FFFFFF" d="M49.9,27.9c0-0.4-0.2-0.9-0.4-1.5c-0.7-4.6-3-8.4-6.6-11.6c-3.7-3.1-7.8-4.7-12.5-4.8H10.1
		c-0.4,0.2-0.5,0.5-0.2,0.9c0.4,0.2,0.9,0.3,1.7,0.4c0.8,0.1,1.3,0.2,1.5,0.4c0.9,0.3,1.6,1.1,2,2.6v35.6c-0.4,1.3-0.9,2.1-1.7,2.5
		c-0.4,0.2-0.9,0.3-1.7,0.4c-0.8,0.1-1.4,0.3-1.7,0.4c-0.2,0.2-0.1,0.5,0.2,0.9h22.2c3.5,0,6.6-1,9.6-3.1c5.5-3.9,8.3-10,8.3-18.2
		C50.2,31.1,50.1,29.5,49.9,27.9z M44.6,34.1c0,8.8-2.5,14.6-7.5,17.4c-1.7,0.9-3.7,1.4-6,1.4c-2.9,0-5.5-0.7-7.7-2.1
		c-1.8-1.5-2.7-3.5-2.7-5.9l0.2-33.8c2.8,0,5.7,0.1,8.5,0.1c3.3,0.2,5.8,0.9,7.6,2.2c3.1,2.2,5.2,5.2,6.4,9.1
		C44.1,25.6,44.6,29.4,44.6,34.1z"/>
</g>
</svg>
