<?xml version="1.0" encoding="utf-8"?>
<!-- Generator: Adobe Illustrator 18.1.0, SVG Export Plug-In . SVG Version: 6.00 Build 0)  -->
<!DOCTYPE svg PUBLIC "-//W3C//DTD SVG 1.1//EN" "http://www.w3.org/Graphics/SVG/1.1/DTD/svg11.dtd">
<svg version="1.1" id="Camada_1" xmlns="http://www.w3.org/2000/svg" xmlns:xlink="http://www.w3.org/1999/xlink" x="0px" y="0px"
	 viewBox="0 0 60 66" enable-background="new 0 0 60 66" xml:space="preserve">
<g>
	<rect fill="#0076E8" width="60" height="66"/>
	<path fill="#FFFFFF" d="M46.2,10.4c0-0.2-0.1-0.3-0.4-0.4H26.1c-0.2,0.1-0.2,0.3-0.2,0.8c0.5,0.3,1.1,0.5,1.9,0.6
		c1.3,0.2,2,0.3,2,0.3c1.6,0.3,2.5,1.2,2.7,2.8l0.1,33.1c0,1.7-0.6,3-1.9,4c-1.3,1-2.9,1.5-4.8,1.5c-1.2,0-2.3-0.2-3.3-0.6
		c-1.1-0.5-1.7-1.2-1.7-2.1c0-0.4,0.2-1.1,0.5-2.1c0.3-0.9,0.5-1.7,0.5-2.2c0-0.9-0.4-1.7-1.2-2.2c-0.8-0.6-1.9-0.8-3.4-0.8
		c-1.7,0.1-2.7,0.8-3.2,2.3c-0.1,0.5-0.2,0.9-0.2,1.4c0,1.7,1,3.4,3,5c2.4,1.6,5.4,2.4,8.9,2.4c2.9,0,5.4-0.6,7.6-1.7
		c3.6-1.8,5.7-5,6.3-9.6L39.7,14c0.5-1.7,2.3-2.6,5.5-2.8l0.6-0.2C46.1,10.8,46.2,10.6,46.2,10.4z"/>
</g>
</svg>
