<?xml version="1.0" encoding="utf-8"?>
<!-- Generator: Adobe Illustrator 18.1.0, SVG Export Plug-In . SVG Version: 6.00 Build 0)  -->
<!DOCTYPE svg PUBLIC "-//W3C//DTD SVG 1.1//EN" "http://www.w3.org/Graphics/SVG/1.1/DTD/svg11.dtd">
<svg version="1.1" id="Camada_1" xmlns="http://www.w3.org/2000/svg" xmlns:xlink="http://www.w3.org/1999/xlink" x="0px" y="0px"
	 viewBox="0 0 60 66" enable-background="new 0 0 60 66" xml:space="preserve">
<g>
	<rect fill="#0076E8" width="60" height="66"/>
	<path fill="#FFFFFF" d="M51.8,53.9c0.1-0.1,0.2-0.3,0.2-0.4c0-0.2-0.1-0.3-0.2-0.4c-0.4-0.2-0.9-0.3-1.7-0.4
		c-0.8-0.1-1.3-0.2-1.7-0.3c-1.1-0.4-1.8-1.3-2.1-2.8V14.2l0.4-1.2c0.4-0.7,1.1-1.2,2.1-1.5c1.5-0.3,2.3-0.5,2.5-0.6
		c0.1-0.2,0-0.4-0.2-0.7L39,10l-0.4,0.2C37.1,16.5,35,25.8,32,38.4c0,0.4-0.1,0.8-0.5,1.3c-3.7-9.6-7.2-19.5-10.7-29.6L9.7,10
		c-0.3,0-0.6,0.1-0.9,0.4c0.1,0.4,0.4,0.7,0.9,0.7c0.5,0.1,1,0.1,1.4,0.1c1.5,0.3,2.3,1.2,2.6,2.7L13.6,50c-0.3,1.1-1,2-2.1,2.5
		c-0.4,0.2-1.5,0.5-3.2,0.9C8,53.7,8,54,8.3,54.1l11.9,0.1c0.3,0,0.5-0.1,0.6-0.2c0.2-0.1,0.2-0.3,0.1-0.6c-0.8-0.2-1.9-0.5-3.5-1
		c-1.3-0.7-1.9-1.8-1.9-3.4V16.6l0.3-0.2c1.7,4.6,3.8,10.7,6.4,18.4c3.1,9.2,5.2,15.4,6.3,18.4c0.1,0.2,0.3,0.5,0.4,0.7
		c0.2,0.3,0.4,0.3,0.7,0.2c0.1-0.2,0.3-0.5,0.6-0.9c1-4.1,2.4-10.3,4.3-18.5c1.9-8.3,3.3-14.5,4.3-18.6l0.2-0.2
		c0.2,0.2,0.2,0.6,0.2,1.1c0,0.5,0,0.8,0.1,1l-0.1,32c-0.2,1.2-0.9,2-2.2,2.4c-1.1,0.2-2.3,0.5-3.4,0.8c-0.2,0.5-0.1,0.8,0.2,0.9
		l17,0.1C51,54.2,51.4,54.1,51.8,53.9z"/>
</g>
</svg>
