<?xml version="1.0" encoding="utf-8"?>
<!-- Generator: Adobe Illustrator 18.1.0, SVG Export Plug-In . SVG Version: 6.00 Build 0)  -->
<!DOCTYPE svg PUBLIC "-//W3C//DTD SVG 1.1//EN" "http://www.w3.org/Graphics/SVG/1.1/DTD/svg11.dtd">
<svg version="1.1" id="Camada_1" xmlns="http://www.w3.org/2000/svg" xmlns:xlink="http://www.w3.org/1999/xlink" x="0px" y="0px"
	 viewBox="0 0 60 66" enable-background="new 0 0 60 66" xml:space="preserve">
<g>
	<rect fill="#0076E8" width="60" height="66"/>
	<path fill="#FFFFFF" d="M51.5,10.8c0-0.2-0.1-0.5-0.4-0.7L37.9,10c-0.5,0.2-0.7,0.5-0.6,0.8c0.6,0.2,1.3,0.4,2.3,0.5
		c1.3,0.2,2.1,0.3,2.3,0.4c1,0.2,1.7,1,1.9,2.2v28l-0.1-0.1L19.5,10.1L11,10c-0.2,0-0.6,0.1-1.4,0.1c-0.6,0-0.9,0.1-1.2,0.4
		c0,0.5,0.2,0.7,0.7,0.8c0.5,0.1,0.9,0.2,1.4,0.2c1.3,0.1,2.6,0.8,3.8,2.3c0.9,1.2,1.8,2.5,2.7,3.7v29.2c0-0.1-0.2,1-0.5,3.3
		c-0.3,1.5-1.6,2.5-3.7,2.9c-0.4,0-0.9,0.1-1.4,0.1c-0.5,0-0.8,0.2-1.1,0.5c0,0.1,0.1,0.3,0.2,0.5l14.3,0.1l0.9-0.2
		c0.3-0.4,0.2-0.6-0.3-0.6c-0.9-0.1-2.3-0.4-4.1-0.9c-0.9-0.4-1.6-1.2-1.9-2.3c-0.1-0.3-0.3-1.3-0.6-3.1L19,19.6l24.4,32.7
		c0.3,0.4,0.6,0.8,0.9,1.1c0.4,0.5,0.8,0.7,1.2,0.7V14c0.2-1,0.5-1.6,0.9-2c0.5-0.3,1.2-0.5,2.2-0.6c1.3-0.1,2.1-0.2,2.4-0.3
		L51.5,10.8z"/>
</g>
</svg>
