<?xml version="1.0" encoding="utf-8"?>
<!-- Generator: Adobe Illustrator 18.1.0, SVG Export Plug-In . SVG Version: 6.00 Build 0)  -->
<!DOCTYPE svg PUBLIC "-//W3C//DTD SVG 1.1//EN" "http://www.w3.org/Graphics/SVG/1.1/DTD/svg11.dtd">
<svg version="1.1" id="Camada_1" xmlns="http://www.w3.org/2000/svg" xmlns:xlink="http://www.w3.org/1999/xlink" x="0px" y="0px"
	 viewBox="0 0 60 66" enable-background="new 0 0 60 66" xml:space="preserve">
<g>
	<rect fill="#0076E8" width="60" height="66"/>
	<path fill="#FFFFFF" d="M52.1,23.4c-2.4-5.3-6.8-9.2-13.2-11.8c-2.6-1.1-5.5-1.7-8.7-1.7c-4.7,0-9,1.1-12.7,3.2
		c-3.5,2-6.2,4.6-8.3,8s-3.1,7-3.1,11c0,1,0.1,2,0.2,3c0.6,4.2,2.7,8.1,6.1,11.5c3.3,3.2,7,5.4,11.3,6.5c2.1,0.5,4.2,0.8,6.3,0.8
		c7.6,0,14-3,19.2-8.9c3.1-3.5,4.7-8,4.7-13.3C53.9,28.8,53.3,26,52.1,23.4z M44,19.4c1.7,3.6,2.5,7.8,2.5,12.5
		c0,5.2-1,9.8-3.1,13.6c-1.3,2.4-3.3,4.3-5.8,5.6c-2.5,1.3-5.3,1.9-8.3,1.8c-2.8-0.1-5.3-0.8-7.6-2.2c-2.3-1.3-4.1-3.2-5.4-5.5
		c-1.9-3.6-2.8-7.9-2.8-13c0-3.7,0.5-7.1,1.5-10.3c0.8-2.7,2.4-5,4.7-7.1c2.3-2,4.9-3.2,7.6-3.5c0.8-0.1,1.7-0.2,2.5-0.2
		c3.1,0,5.9,0.7,8.4,2.1C40.8,14.6,42.8,16.7,44,19.4z"/>
</g>
</svg>
