<?xml version="1.0" encoding="utf-8"?>
<!-- Generator: Adobe Illustrator 18.1.0, SVG Export Plug-In . SVG Version: 6.00 Build 0)  -->
<!DOCTYPE svg PUBLIC "-//W3C//DTD SVG 1.1//EN" "http://www.w3.org/Graphics/SVG/1.1/DTD/svg11.dtd">
<svg version="1.1" id="Camada_1" xmlns="http://www.w3.org/2000/svg" xmlns:xlink="http://www.w3.org/1999/xlink" x="0px" y="0px"
	 viewBox="0 0 60 66" enable-background="new 0 0 60 66" xml:space="preserve">
<g>
	<rect fill="#0076E8" width="60" height="66"/>
	<path fill="#FFFFFF" d="M49.2,20.2c-0.8-3.2-2.8-5.8-6-7.7c-2.9-1.6-6.1-2.4-9.6-2.5L11.4,10c-0.3,0-0.6,0.1-0.9,0.4
		c0,0.1,0,0.3,0.1,0.6c0.4,0.2,0.9,0.3,1.7,0.4c0.9,0.1,1.5,0.2,1.7,0.2c1.5,0.1,2.5,0.9,3.1,2.6l0.1,35.4l-0.5,1.3
		c-0.6,0.9-1.4,1.5-2.6,1.8c-0.3,0.1-0.9,0.1-1.9,0.2c-0.7,0.1-1.3,0.3-1.7,0.5c0,0.4,0.1,0.7,0.4,0.8l19.9-0.2
		c0.2-0.3,0.2-0.6-0.1-0.8c-1.1-0.1-2.6-0.4-4.7-0.9c-1-0.6-1.6-1.4-1.8-2.5l-0.1-15l0.3-0.2c5.7,0,9.8-0.3,12.3-0.8
		c4.5-0.8,8-2.5,10.6-5c1.6-1.6,2.4-3.6,2.4-6C49.5,21.8,49.4,21,49.2,20.2z M41.4,17.3c0.5,1.8,0.7,3.5,0.7,5.2
		c0,4-1.3,6.8-3.8,8.4c-2.4,1.6-5.8,2.4-10.2,2.4c-1.1,0-2.4,0-4-0.1l-0.1-21.8l0.2-0.2c5.4,0.1,8.7,0.2,10,0.5
		C38,12.4,40.4,14.3,41.4,17.3z"/>
</g>
</svg>
