<?xml version="1.0" encoding="utf-8"?>
<!-- Generator: Adobe Illustrator 18.1.0, SVG Export Plug-In . SVG Version: 6.00 Build 0)  -->
<!DOCTYPE svg PUBLIC "-//W3C//DTD SVG 1.1//EN" "http://www.w3.org/Graphics/SVG/1.1/DTD/svg11.dtd">
<svg version="1.1" id="Camada_1" xmlns="http://www.w3.org/2000/svg" xmlns:xlink="http://www.w3.org/1999/xlink" x="0px" y="0px"
	 viewBox="0 0 60 66" enable-background="new 0 0 60 66" xml:space="preserve">
<g>
	<rect fill="#0076E8" width="60" height="66"/>
	
		<path fill-rule="evenodd" clip-rule="evenodd" fill="#FFFFFF" stroke="#252223" stroke-width="8.543612e-002" stroke-miterlimit="22.9256" d="
		M55.7,46.8c-0.5,0.8-1.3,1.5-2.4,2c-1.1,0.5-2.4,0.8-3.7,0.8c-1.7,0-3.5-0.4-5.2-1.2c2.3-2.1,4.1-4.6,5.4-7.4c1.3-2.9,2-5.8,2-8.7
		c0-2.4-0.5-4.8-1.4-7.4c-0.9-2.6-2.4-5-4.3-7.2c-1.9-2.2-4.4-4-7.5-5.4c-3.1-1.4-6.7-2.1-11-2.1c-3.5,0-6.7,0.6-9.7,1.8
		c-2.9,1.2-5.5,2.9-7.6,5c-2.1,2.1-3.7,4.5-4.8,7.2c-1.1,2.7-1.7,5.4-1.7,8.3c0,2.3,0.5,4.8,1.4,7.3c0.9,2.5,2.4,4.9,4.4,7.1
		c2,2.2,4.6,4,7.7,5.4c3.1,1.4,6.7,2,10.7,2c1.5,0,3.1-0.2,4.9-0.4c1.8-0.3,3.5-0.8,5.2-1.6c1.8,0.7,3.4,1.2,4.6,1.5
		c1.3,0.3,2.6,0.5,3.9,0.5c2.4,0,4.4-0.7,6-2c1.6-1.3,2.7-3.1,3.5-5.2L55.7,46.8z M27.7,12c4.6,0,8.4,1.5,11.5,4.5
		c1.2,1.2,2.2,2.5,3.1,3.9c0.8,1.4,1.4,3.1,1.9,5.1c0.4,2,0.7,4.4,0.7,7.3c0,2.1-0.2,4-0.7,5.9c-0.5,1.8-1.1,3.4-1.8,4.7
		c-0.7,1.3-1.5,2.4-2.2,3.2c-5.2-2.3-9.3-3.4-12.3-3.4c-2.1,0-4,0.4-5.5,1.3c-1.5,0.9-3.1,2.2-4.7,4c-1-0.7-2-1.8-3.1-3.2
		c-1-1.4-1.9-3.2-2.7-5.4c-0.7-2.2-1.1-4.8-1.1-7.8c0-4,0.8-7.6,2.3-10.6c1.5-3.1,3.6-5.4,6.2-7C21.8,12.8,24.7,12,27.7,12z
		 M18,48.9c1.3-1.1,3-1.6,5.2-1.6c2.5,0,6.2,1.2,11.2,3.5c-1.9,0.9-4,1.4-6.3,1.4C24.4,52.2,21.1,51.1,18,48.9z"/>
</g>
</svg>
