<?xml version="1.0" encoding="utf-8"?>
<!-- Generator: Adobe Illustrator 18.1.0, SVG Export Plug-In . SVG Version: 6.00 Build 0)  -->
<!DOCTYPE svg PUBLIC "-//W3C//DTD SVG 1.1//EN" "http://www.w3.org/Graphics/SVG/1.1/DTD/svg11.dtd">
<svg version="1.1" id="Camada_1" xmlns="http://www.w3.org/2000/svg" xmlns:xlink="http://www.w3.org/1999/xlink" x="0px" y="0px"
	 viewBox="0 0 60 66" enable-background="new 0 0 60 66" xml:space="preserve">
<g>
	<rect fill="#0076E8" width="60" height="66"/>
	<path fill="#FFFFFF" d="M51.8,54v-0.3L50,53.2c-1.6-0.2-3.2-1.1-4.7-2.7c-0.7-0.7-1.7-2.2-3.2-4.4l-9-13.6V32c0.1,0,0.2,0,0.4,0
		c0.2-0.1,0.3-0.1,0.4-0.1c2.3-0.8,3.8-1.4,4.5-1.8c1.7-0.9,2.9-2,3.7-3.3c1.1-1.9,1.7-4,1.7-6.2c0-0.8-0.1-1.6-0.3-2.4
		c-0.6-2.8-2.3-4.8-5.1-6.2c-1.9-0.9-4.6-1.6-8.1-2.1H8.6c-0.1,0.1-0.2,0.1-0.4,0.2c-0.1,0.1-0.1,0.2-0.1,0.3
		C8.5,11,9,11.2,9.9,11.3c1.1,0,1.8,0.1,2,0.2c1.7,0.3,2.7,1.3,3,3.1l-0.1,35.7c-0.6,1.3-1.5,2-2.8,2.2c-0.9,0-2.1,0.3-3.7,0.8
		C8,53.5,8.2,53.8,8.6,54l19.8-0.1c0.2-0.2,0.3-0.5,0.1-0.8c-0.9-0.2-2.4-0.4-4.2-0.8c-1.4-0.3-2.1-1.2-2.3-2.7l-0.1-16.3l0.3-0.3
		h4.2l0.5,0.5l4.8,8c2.1,3.5,3.5,5.8,4.4,6.9c1.8,2.4,3.8,4.3,5.9,5.6H51.8z M37,23.6c-0.5,3.5-2.1,5.8-4.7,6.9
		c-1.3,0.5-2.9,0.8-4.9,0.9c-1.7,0-3.5,0-5.2,0.1L22,31.3L22,11.1c2.4,0,4.7,0.1,7,0.1c2.6,0.2,4.6,1,6,2.4c1.4,1.4,2.1,3.6,2.1,6.7
		C37.1,20.4,37.1,21.5,37,23.6z"/>
</g>
</svg>
