<?xml version="1.0" encoding="utf-8"?>
<!-- Generator: Adobe Illustrator 18.1.0, SVG Export Plug-In . SVG Version: 6.00 Build 0)  -->
<!DOCTYPE svg PUBLIC "-//W3C//DTD SVG 1.1//EN" "http://www.w3.org/Graphics/SVG/1.1/DTD/svg11.dtd">
<svg version="1.1" id="Camada_1" xmlns="http://www.w3.org/2000/svg" xmlns:xlink="http://www.w3.org/1999/xlink" x="0px" y="0px"
	 viewBox="0 0 60 66" enable-background="new 0 0 60 66" xml:space="preserve">
<g>
	<rect fill="#0076E8" width="60" height="66"/>
	<path fill="#FFFFFF" d="M47.8,42.6v-2.7c-0.4-3.3-2.3-6-5.7-8c-1.4-0.8-4.5-2.1-9.5-3.8c-2.5-0.8-5-1.6-7.5-2.4
		c-2.8-1.2-4.8-2.8-6-5c-0.4-0.7-0.6-1.6-0.6-2.5c0-1.3,0.3-2.5,1-3.5c1.8-2.7,4.5-4.1,8.1-4.1c0.7,0,1.3,0.1,2,0.2
		c2.9,0.1,5.6,1.3,8.1,3.7c2.2,2,3.8,4.5,4.9,7.5c0.3,0.9,0.9,2.1,1.7,3.8c0.2,0.2,0.6,0.1,1-0.1c0-0.2,0.1-0.4,0.2-0.6
		c-0.2-2.6-0.6-6.4-1.2-11.4c-0.1-0.2-0.2-0.8-0.2-1.7c0-0.7-0.1-1.2-0.4-1.5c-0.2-0.1-0.4-0.2-0.6-0.2c-0.3,0-0.6,0.3-0.9,0.8
		c-0.3,0.6-0.5,0.9-0.6,1c-0.2,0.3-0.9,0.4-2.1,0.3c-3.8-1.5-7.6-2.2-11.5-2.2c-6.4,0-11.1,2-14.1,6.1c-0.3,0.4-0.7,1.4-1.3,3.1v2.6
		c0.3,3,2,5.4,5.1,7.3c1.6,0.9,4.4,2,8.6,3.3c2,0.6,4,1.1,6,1.7c2.4,0.7,4.2,1.6,5.5,2.6c1.8,1.3,3,3,3.7,5c0.1,0.7,0.2,1.5,0.2,2.2
		c0,2.2-0.6,3.9-1.8,5.2c-2.5,2.7-5.9,4-10,4c-1.8,0-3.5-0.3-5.2-0.8c-2.8-0.8-5.1-2.6-7-5.4c-1.7-2.4-2.8-5.3-3.3-8.4
		c-0.1-0.6-0.3-1.2-0.4-1.7c-0.2-0.7-0.4-1.2-0.7-1.6c-0.1,0-0.3-0.1-0.4-0.1c-0.4,0-0.6,0.1-0.8,0.3l-0.1,17.5l0.4,0.7
		c0.2,0,0.3,0.1,0.5,0.1c0.4,0,0.9-0.4,1.4-1.2c0.6-0.8,1.1-1.2,1.6-1.2c0.1,0,0.3,0,0.4,0.1c4.1,1.1,6.3,1.7,6.6,1.8
		c2.6,0.6,4.8,0.9,6.8,0.9c3.7,0,7-0.8,10.1-2.3c3.5-1.7,5.9-4.1,7.2-7.1C47.3,44.1,47.5,43.5,47.8,42.6z"/>
</g>
</svg>
