<?xml version="1.0" encoding="utf-8"?>
<!-- Generator: Adobe Illustrator 18.1.0, SVG Export Plug-In . SVG Version: 6.00 Build 0)  -->
<!DOCTYPE svg PUBLIC "-//W3C//DTD SVG 1.1//EN" "http://www.w3.org/Graphics/SVG/1.1/DTD/svg11.dtd">
<svg version="1.1" id="Camada_1" xmlns="http://www.w3.org/2000/svg" xmlns:xlink="http://www.w3.org/1999/xlink" x="0px" y="0px"
	 viewBox="0 0 60 66" enable-background="new 0 0 60 66" xml:space="preserve">
<g>
	<rect fill="#0076E8" width="60" height="66"/>
	<path fill="#FFFFFF" d="M35.5,37.9c0.6,1.1,1.2,2.5,1.8,4.2c0.9,2.3,1.4,3.8,1.7,4.3c0.6,1.5,0.9,3,0.8,4.5
		c-0.2,0.7-0.8,1.2-1.7,1.5c-0.7,0.2-1.5,0.4-2.3,0.6c-0.3,0.2-0.3,0.5,0.2,0.8L46.8,54l3.5-0.2l0.2-0.2c0-0.2,0-0.4-0.2-0.6
		c-2.2-0.2-3.7-1.3-4.5-3.2C43.9,45,41,37.7,37.2,28.1l-4.6-11.6c-0.6-1.5-1.5-3.6-2.5-6.5l-0.3,0.2c-0.8,2.7-2.1,4.8-3.8,6.4
		c0.1,0.2,0.4,0.6,0.9,1c0.5,0.4,0.7,0.8,0.7,1.2c-1.9,5.2-4.7,13-8.3,23.4c-1.6,3.5-2.6,5.6-3,6.3c-1.4,2.2-3.1,3.7-5.2,4.5
		C10.6,52.9,10.3,53,10,53c-0.3,0.1-0.5,0.3-0.5,0.5c0,0.1,0.1,0.2,0.4,0.4h14.5c0.1,0,0.2-0.3,0.4-0.7c-0.7-0.3-1.3-0.5-2-0.8
		c-0.8-0.4-1.4-0.8-1.8-1.3c-0.9-1.1-1.4-2.6-1.4-4.2c0-1.1,0.2-2.5,0.6-4.1c0.4-1.3,0.7-2.6,1.1-3.8c0-0.3,0.2-0.6,0.5-1.1
		 M35.1,37l-12.9,0.1c0.2-0.8,0.4-1.7,0.8-2.7c1.1-3.3,2.8-8.3,5.1-14.9l1.1,2.5L35.1,37z"/>
	<g>
		<path fill="#FFFFFF" d="M48.8,5L38.7,16.8h-1.2L41.1,5H48.8z"/>
	</g>
</g>
</svg>
