<?xml version="1.0" encoding="utf-8"?>
<!-- Generator: Adobe Illustrator 18.1.0, SVG Export Plug-In . SVG Version: 6.00 Build 0)  -->
<!DOCTYPE svg PUBLIC "-//W3C//DTD SVG 1.1//EN" "http://www.w3.org/Graphics/SVG/1.1/DTD/svg11.dtd">
<svg version="1.1" id="Camada_1" xmlns="http://www.w3.org/2000/svg" xmlns:xlink="http://www.w3.org/1999/xlink" x="0px" y="0px"
	 viewBox="0 0 60 66" enable-background="new 0 0 60 66" xml:space="preserve">
<g>
	<rect fill="#0076E8" width="60" height="66"/>
	<path fill="#FFFFFF" d="M50.2,39.7l0.2-0.8c0-0.3,0-0.6-0.2-0.7l-0.6,0.2c-1.5,4.8-4.2,8.6-8.2,11.4c-4,2.8-8.6,4.2-13.8,4.2
		c-1.1,0-2.2-0.1-3.4-0.2c-1.7-0.4-2.7-1.3-2.9-2.7l-0.1-18.7l0.3-0.2c2.7,0.1,4.8,0.3,6.3,0.8c2.2,0.6,3.8,1.8,5,3.4
		c0.6,0.7,0.9,1.8,1.2,3.1c0.2,1.1,0.3,2.2,0.5,3.3c0.2,0.2,0.5,0.2,0.8-0.1L35.4,22c-0.2-0.4-0.5-0.6-0.8-0.5
		c-0.1,0.1-0.2,0.2-0.4,0.5c0,2.1-0.3,3.7-0.8,4.7c-1,1.9-2.7,3.3-5.1,4c-1.6,0.5-3.9,0.8-6.8,0.8l-0.4-0.2V12.5l0.3-0.3
		c5.9,0,10.5,0.4,13.9,1.2l0.1,0.1c2,0.5,3.8,1.3,5.4,2.6c2.1,1.5,4.3,4.5,6.6,9.1c0.6,0.3,0.9,0.1,0.9-0.4
		c-1.2-3.1-2.9-7.7-5.2-13.9H8c-0.2,0.1-0.4,0.3-0.5,0.8c0.4,0.4,1,0.6,1.9,0.6c1.1,0.1,1.9,0.2,2.2,0.3c1.3,0.4,2.2,1.2,2.5,2.5
		L14,51.5c-0.5,1.1-1.4,1.9-2.9,2.2c-0.6,0-1.3,0.1-1.9,0.2C8.5,54,8,54.2,7.6,54.5c0,0,0,0.1,0.1,0.3c0,0.2,0.1,0.2,0.2,0.2
		L46,54.9c0.8-2.7,1.9-6.8,3.4-12.3C49.6,42,49.9,41,50.2,39.7z"/>
	<g>
		<path fill="#FFFFFF" d="M59.2,6L49.2,17.8H48L51.6,6H59.2z"/>
	</g>
</g>
</svg>
