<?xml version="1.0" encoding="utf-8"?>
<!-- Generator: Adobe Illustrator 18.1.0, SVG Export Plug-In . SVG Version: 6.00 Build 0)  -->
<!DOCTYPE svg PUBLIC "-//W3C//DTD SVG 1.1//EN" "http://www.w3.org/Graphics/SVG/1.1/DTD/svg11.dtd">
<svg version="1.1" id="Camada_1" xmlns="http://www.w3.org/2000/svg" xmlns:xlink="http://www.w3.org/1999/xlink" x="0px" y="0px"
	 viewBox="0 0 60 66" enable-background="new 0 0 60 66" xml:space="preserve">
<g>
	<rect fill="#0076E8" width="60" height="66"/>
	<path fill="#FFFFFF" d="M53.6,23.7c0.1-0.1,0.1-0.2,0.1-0.3c0-0.3-0.1-0.4-0.4-0.5H36c-0.5,0.2-0.5,0.4-0.2,0.8
		c3.3,0.3,5.1,0.5,5.1,0.5c1.8,0.5,3,1.5,3.5,3.1l0.1,14.1c-0.2,1.6-0.3,2.5-0.4,2.9c-0.2,1.1-0.5,2-0.8,2.8
		c-0.6,1.5-1.7,2.8-3.1,3.7c-1.4,1-3,1.5-4.6,1.7c-0.9,0.1-1.9,0.2-2.9,0.2c-2.7,0-5.1-0.4-7.4-1.1c-1.4-0.4-2.6-1.2-3.5-2.4
		c-1-1.2-1.5-2.5-1.5-3.9l0.3-31.8c0.6-1.2,1.7-1.9,3.2-2.3c1.4-0.1,2.8-0.3,4.2-0.4c0.2-0.2,0.1-0.4-0.1-0.7L6.3,10.1
		c0,0.2,0,0.4,0.2,0.6c0.9,0.1,2.1,0.3,3.7,0.7c1.3,0.7,2,1.7,2.3,3.1l0.1,19.5c0,2.1-0.1,4.3-0.1,6.4c0.1,2.5,0.4,4.5,1,6.1
		c1.7,4.4,6.3,6.8,13.9,7.4c1.7,0.1,3.1,0.2,4.4,0.2c3.6,0,6.5-0.5,8.8-1.5c3.8-1.7,5.7-5.7,5.7-11.9l0.3-13.6
		c0.2-0.8,0.6-1.5,1.4-2c0.8-0.6,1.6-0.9,2.4-1c0.4-0.1,0.9-0.2,1.7-0.3C52.9,23.9,53.4,23.8,53.6,23.7z"/>
	<g>
		<path fill="#FFFFFF" d="M55.4,5L45.3,16.8h-1.2L47.8,5H55.4z"/>
	</g>
</g>
</svg>
