<?xml version="1.0" encoding="utf-8"?>
<!-- Generator: Adobe Illustrator 18.1.0, SVG Export Plug-In . SVG Version: 6.00 Build 0)  -->
<!DOCTYPE svg PUBLIC "-//W3C//DTD SVG 1.1//EN" "http://www.w3.org/Graphics/SVG/1.1/DTD/svg11.dtd">
<svg version="1.1" id="Camada_1" xmlns="http://www.w3.org/2000/svg" xmlns:xlink="http://www.w3.org/1999/xlink" x="0px" y="0px"
	 viewBox="0 0 35 35" enable-background="new 0 0 35 35" xml:space="preserve">
<g opacity="0.5">
	
		<path fill="none" stroke="#00BC96" stroke-width="0.9755" stroke-linecap="round" stroke-linejoin="round" stroke-dasharray="1.4635,1.9513" d="
		M28.2,29.7H6.8c-1.8,0-3.3-1.5-3.3-3.3V8.7c0-1.8,1.5-3.3,3.3-3.3h21.4c1.8,0,3.3,1.5,3.3,3.3v17.7C31.5,28.2,30,29.7,28.2,29.7z"
		/>
</g>
<path fill="none" stroke="#00BC96" stroke-width="0.9755" stroke-linecap="round" stroke-linejoin="round" stroke-miterlimit="10" d="
	M13.3,19.6c0,0.1,0,0.1,0,0.2c0,2.1,1.7,3.9,3.9,3.9c2.1,0,3.9-1.7,3.9-3.9c0-0.1,0-0.1,0-0.2"/>
<circle fill="none" stroke="#00BC96" stroke-width="0.9755" stroke-miterlimit="10" cx="12.3" cy="14" r="1.4"/>
<path fill="none" stroke="#00BC96" stroke-width="0.9755" stroke-linecap="round" stroke-linejoin="round" stroke-miterlimit="10" d="
	M22.1,13.3c-0.8,0-1.4,0.6-1.4,1.4h2.9"/>
</svg>
