<?xml version="1.0" encoding="UTF-8"?>
<!DOCTYPE svg PUBLIC "-//W3C//DTD SVG 1.1//EN" "http://www.w3.org/Graphics/SVG/1.1/DTD/svg11.dtd">
<!-- Creator: CorelDRAW X7 -->
<svg xmlns="http://www.w3.org/2000/svg" xml:space="preserve" width="112.42mm" height="24.9115mm" version="1.1" style="shape-rendering:geometricPrecision; text-rendering:geometricPrecision; image-rendering:optimizeQuality; fill-rule:evenodd; clip-rule:evenodd"
viewBox="0 0 203272 45044"
 xmlns:xlink="http://www.w3.org/1999/xlink">
 <defs>
  <style type="text/css">
   <![CDATA[
    .str5 {stroke:#0176E8;stroke-width:632.672}
    .str4 {stroke:#0176E8;stroke-width:452.037}
    .str0 {stroke:white;stroke-width:1582.13;stroke-linecap:round;stroke-linejoin:round}
    .str1 {stroke:white;stroke-width:858.69;stroke-linecap:round;stroke-linejoin:round}
    .str3 {stroke:white;stroke-width:824.516;stroke-linecap:round;stroke-linejoin:round}
    .str2 {stroke:white;stroke-width:733.928;stroke-linecap:round;stroke-linejoin:round}
    .fil1 {fill:none}
    .fil3 {fill:black}
    .fil0 {fill:#0176E8}
    .fil2 {fill:white}
   ]]>
  </style>
 </defs>
 <g id="Layer_x0020_1">
  <metadata id="CorelCorpID_0Corel-Layer"/>
  <g id="_762089968">
   <path class="fil0" d="M71650 27137c0,-813 -271,-1490 -880,-1964 -610,-475 -1626,-949 -3116,-1355 -1626,-407 -2846,-949 -3658,-1558 -813,-610 -1220,-1491 -1220,-2574 0,-1152 474,-2033 1355,-2710 881,-678 2100,-1016 3523,-1016 1558,0 2777,406 3658,1219 880,813 1354,1897 1354,3116l-1219 0c0,-1016 -338,-1829 -1016,-2438 -677,-610 -1626,-949 -2845,-949 -1219,0 -2100,271 -2777,745 -678,542 -949,1152 -949,1965 0,745 271,1355 881,1829 609,474 1626,881 3184,1287 1625,407 2777,948 3590,1626 813,677 1219,1558 1219,2709 0,1220 -474,2100 -1422,2778 -949,677 -2168,1016 -3658,1016 -1491,0 -2778,-339 -3862,-1084 -1083,-745 -1625,-1829 -1625,-3251l1219 0c0,1151 407,2032 1219,2506 813,542 1829,813 2981,813 1152,0 2100,-271 2777,-745 949,-474 1287,-1152 1287,-1965z"/>
   <path class="fil0" d="M81541 30728c-68,-407 -136,-678 -204,-949 0,-271 -67,-542 -67,-745l0 0c-407,542 -949,1016 -1558,1355 -610,338 -1355,474 -2236,474 -1084,0 -1897,-271 -2439,-813 -541,-542 -880,-1287 -880,-2235 0,-1017 406,-1829 1287,-2439 881,-610 2032,-881 3523,-881l2370 0 0 -1354c0,-813 -271,-1423 -745,-1830 -474,-406 -1219,-677 -2100,-677 -880,0 -1558,203 -2100,610 -542,406 -813,948 -813,1558l-1219 0c0,-881 406,-1626 1152,-2236 745,-609 1761,-948 2980,-948 1220,0 2168,271 2913,880 745,610 1084,1491 1084,2642l0 5284c0,407 0,745 68,1084 67,339 135,678 203,1084l-1219 0 0 136zm-3929 -881c880,0 1625,-203 2303,-610 677,-406 1151,-881 1422,-1558l0 -2235 -2438 0c-1084,0 -1965,203 -2642,677 -610,474 -949,1016 -949,1761 0,610 204,1084 610,1423 407,339 949,542 1694,542z"/>
   <path class="fil0" d="M86486 16773l-1219 0 0 -1694 1219 0 0 1694zm0 13955l-1219 0 0 -10839 1219 0 0 10839z"/>
   <path class="fil0" d="M90279 19889l68 1964 0 0c339,-677 813,-1219 1423,-1626 609,-406 1287,-609 2100,-609 1151,0 2032,339 2641,1016 610,677 881,1761 881,3319l0 6707 -1219 0 0 -6707c0,-1219 -203,-2100 -678,-2574 -474,-474 -1084,-745 -1964,-745 -813,0 -1490,203 -2032,677 -542,474 -949,1084 -1220,1762l0 7519 -1219 0 0 -10839 1219 0 0 136z"/>
   <path class="fil0" d="M99492 25376c0,-1761 339,-3116 1084,-4200 745,-1016 1761,-1558 3048,-1558 745,0 1423,135 1965,474 542,339 1016,745 1355,1355l0 0 0 -6368 1219 0 0 15581 -1084 0 -68 -1491 0 0c-338,542 -812,1016 -1354,1287 -542,271 -1220,475 -1965,475 -1287,0 -2303,-475 -3048,-1423 -745,-948 -1084,-2235 -1084,-3861l0 -271 -68 0zm1220 203c0,1355 270,2371 745,3116 474,745 1287,1152 2371,1152 813,0 1422,-203 1964,-542 474,-339 881,-813 1220,-1423l0 -5080c-271,-610 -678,-1152 -1152,-1558 -474,-407 -1152,-542 -1964,-542 -1084,0 -1897,406 -2371,1287 -475,880 -813,1964 -813,3387l0 203z"/>
   <path class="fil0" d="M110060 25105c0,-1626 406,-2913 1287,-3929 881,-1016 2032,-1490 3455,-1490 1490,0 2642,474 3522,1490 881,1016 1287,2303 1287,3929l0 339c0,1625 -406,2912 -1287,3929 -880,1016 -2032,1490 -3455,1490 -1490,0 -2641,-474 -3522,-1490 -881,-1017 -1287,-2304 -1287,-3929l0 -339zm1219 339c0,1287 339,2303 949,3184 609,812 1490,1287 2642,1287 1151,0 2032,-407 2641,-1287 610,-813 949,-1897 949,-3184l0 -339c0,-1219 -339,-2303 -949,-3184 -609,-880 -1490,-1287 -2641,-1287 -1152,0 -2033,407 -2642,1287 -610,881 -949,1897 -949,3184l0 339z"/>
   <path class="fil0" d="M125505 25376c0,-1761 338,-3116 1084,-4200 745,-1016 1761,-1558 3048,-1558 745,0 1423,135 1964,474 542,339 1017,745 1355,1355l0 0 0 -6368 1220 0 0 15581 -1084 0 -68 -1491 0 0c-339,542 -813,1016 -1355,1287 -542,271 -1219,475 -1964,475 -1287,0 -2303,-475 -3048,-1423 -746,-948 -1084,-2235 -1084,-3861l0 -271 -68 0zm1152 203c0,1355 270,2371 745,3116 542,745 1287,1152 2371,1152 812,0 1422,-203 1964,-542 474,-339 881,-813 1220,-1423l0 -5080c-272,-610 -678,-1152 -1152,-1558 -474,-407 -1152,-542 -1964,-542 -1084,0 -1897,406 -2372,1287 -541,880 -812,1964 -812,3387l0 203z"/>
   <path class="fil0" d="M143592 30728c-68,-407 -136,-678 -204,-949 0,-271 -67,-542 -67,-745l0 0c-407,542 -949,1016 -1558,1355 -610,338 -1423,542 -2236,542 -1084,0 -1896,-271 -2438,-813 -542,-542 -881,-1287 -881,-2236 0,-1016 407,-1829 1287,-2438 881,-610 2032,-881 3523,-881l2370 0 0 -1355c0,-813 -270,-1422 -745,-1829 -474,-406 -1219,-677 -2100,-677 -880,0 -1558,203 -2100,609 -542,407 -813,949 -813,1558l-1219 0c0,-880 406,-1625 1152,-2235 745,-610 1761,-948 2980,-948 1220,0 2168,271 2913,880 745,610 1084,1491 1084,2642l0 5284c0,407 0,745 68,1084 67,339 135,677 203,1084l-1219 0 0 68zm-3929 -881c880,0 1626,-203 2303,-610 677,-406 1152,-881 1423,-1558l-1 -2235 -2438 0c-1084,0 -1965,203 -2642,677 -610,474 -948,1016 -948,1761 0,610 203,1084 609,1423 407,339 949,542 1694,542z"/>
   <polygon class="fil0" points="153414,16163 158766,29034 164185,16163 165743,16163 165743,30728 164524,30728 164524,24292 164592,17857 164592,17857 159172,30728 158359,30728 152940,17924 152940,17924 153076,24292 153076,30728 151856,30728 151856,16163 "/>
   <path class="fil0" d="M175498 30728c-68,-407 -136,-678 -203,-949 0,-271 -68,-542 -68,-745l0 0c-407,542 -948,1016 -1558,1355 -610,338 -1355,474 -2236,474 -1083,0 -1896,-271 -2438,-813 -542,-542 -881,-1287 -881,-2235 0,-1017 407,-1829 1287,-2439 881,-610 2033,-881 3523,-881l2371 0 0 -1354c0,-813 -271,-1423 -745,-1830 -475,-406 -1220,-677 -2100,-677 -881,0 -1559,203 -2100,610 -543,406 -813,948 -813,1558l-1220 0c0,-881 407,-1626 1152,-2236 745,-609 1761,-948 2980,-948 1220,0 2168,271 2913,880 745,610 1084,1491 1084,2642l0 5284c0,407 0,745 68,1084 68,339 135,678 203,1084l-1219 0 0 136zm-3929 -881c881,0 1626,-203 2303,-610 678,-406 1152,-881 1423,-1558l0 -2235 -2439 0c-1084,0 -1965,203 -2642,677 -610,474 -948,1016 -948,1761 0,610 203,1084 609,1423 407,339 1016,542 1694,542z"/>
   <path class="fil0" d="M180782 17111l0 2778 2235 0 0 948 -2235 0 0 7045c0,746 135,1220 338,1491 204,271 542,406 949,406 203,0 339,0 474,0 136,0 339,-67 542,-67l203 880c-203,68 -406,136 -609,203 -271,68 -475,68 -746,68 -745,0 -1287,-203 -1693,-677 -406,-475 -610,-1220 -610,-2304l0 -7045 -1761 0 0 -948 1761 0 0 -2778 1152 0z"/>
   <path class="fil0" d="M189927 20905l-881 -68c-745,0 -1355,204 -1897,610 -474,406 -812,1016 -1016,1761l0 7452 -1219 0 0 -10839 1016 0 136 1829 0 68 0 0c338,-678 745,-1152 1219,-1491 542,-338 1152,-541 1897,-541 135,0 271,0 474,67 136,0 271,68 339,68l-68 1084z"/>
   <path class="fil0" d="M192704 16773l-1219 0 0 -1694 1219 0 0 1694zm0 13955l-1219 0 0 -10839 1219 0 0 10839z"/>
   <polygon class="fil0" points="198801,24292 201714,19889 203136,19889 199478,25173 203272,30660 201849,30660 198801,26053 195753,30660 194330,30660 198191,25173 194533,19889 195956,19889 "/>
   <g id="_764669696">
    <g>
     <path class="fil0" d="M19629 4234l-5659 -3443 -4974 8166c-1873,3113 -2585,6569 -2255,9920l-5950 3364 4670 8258c1754,3113 4432,5382 7493,6688l0 6965 9498 0c3403,0 6556,-1108 9116,-2941 3205,-2480 5487,-5462 5857,-10132 0,0 541,-4353 -2309,-5857l-15487 -20988 0 0zm0 0l0 0 0 0z"/>
     <path id="_1" class="fil1 str0" d="M19629 4234l-5659 -3443 -4974 8166c-1873,3113 -2585,6569 -2255,9920l-5950 3364 4670 8258c1754,3113 4432,5382 7493,6688l0 6965 9498 0c3403,0 6556,-1108 9116,-2941 3205,-2480 5487,-5462 5857,-10132 0,0 541,-4353 -2309,-5857m-15487 -20988l0 0 0 0z"/>
    </g>
    <g>
     <path class="fil0" d="M32412 41105l5778 3509 4920 -8139c1860,-3061 2533,-6543 2164,-9868l6068 -3416 -4710 -8337c-1780,-3140 -4432,-5462 -7479,-6781l0 -6807 -9551 0c-3417,0 -6609,1069 -9195,2889 -3588,2507 -6042,6464 -6556,11055 0,0 -1148,5699 2730,11068l15831 14827 0 0zm0 0l0 0 0 0z"/>
     <path id="_1_0" class="fil1 str1" d="M32412 41105l5778 3509 4920 -8139c1860,-3061 2533,-6543 2164,-9868l6068 -3416 -4710 -8337c-1780,-3140 -4432,-5462 -7479,-6781l0 -6807 -9551 0c-3417,0 -6609,1069 -9195,2889 -3588,2507 -6042,6464 -6556,11055 0,0 -1148,5699 2730,11068m15831 14827l0 0 0 0z"/>
    </g>
    <path class="fil0" d="M35512 25169l-198 -263c-646,343 -1425,474 -2137,435 -765,-40 -1398,-449 -1715,-1082 -1293,752 -2572,1517 -3957,2111 -1860,791 -3971,1425 -5554,2731 -950,791 -1623,1873 -2375,2849 -831,1069 -1662,2137 -2480,3219 -765,1055 -1385,2163 -2057,3271 -449,752 -1003,1161 -1702,1346l0 4327 9498 0c3403,0 6543,-1108 9115,-2942 3206,-2480 5488,-5461 5858,-10131 26,-27 554,-4393 -2296,-5871l0 0z"/>
    <path class="fil2" d="M35710 24853l-251 -27c-224,146 -264,146 -514,238l237 343c40,39 79,79 132,119 2573,1345 2124,5395 2124,5448 -343,4036 -2097,7084 -5699,9854 -2612,1886 -5699,2889 -8878,2889l-9102 0 -40 -4089c-237,105 -475,171 -752,237l0 4248c0,224 172,396 396,396l9498 0c3351,0 6583,-1043 9353,-3048 3799,-2928 5659,-6134 6016,-10408 13,-171 474,-4564 -2520,-6200z"/>
    <path class="fil2" d="M27544 6622c0,-699 -580,-1280 -1293,-1280 -699,0 -1279,581 -1279,1280 0,712 580,1293 1279,1293 713,0 1293,-581 1293,-1293z"/>
    <path class="fil2" d="M31700 16898c0,3008 -2441,5435 -5449,5435 -2994,0 -5434,-2427 -5434,-5435l0 -989c0,-3008 2440,-5448 5434,-5448 3008,0 5449,2440 5449,5448l0 989z"/>
    <path class="fil1 str2" d="M20183 14102c-686,620 -1121,1503 -1121,2493 0,989 435,1886 1121,2493"/>
    <path class="fil1 str2" d="M32306 14102c700,620 1135,1503 1135,2493 0,989 -436,1886 -1135,2493"/>
    <line class="fil1 str3" x1="26251" y1="7915" x2="26251" y2= "11674" />
    <path class="fil2" d="M22901 26528l0 3166c0,436 356,805 804,805l5079 0c462,0 831,-369 831,-831l0 -3232c0,-1847 -1464,-3324 -3298,-3364 -1873,-26 -3416,1583 -3416,3456z"/>
    <path class="fil2" d="M26766 36396l-40 -79c-343,-594 -119,-1333 475,-1663l6147 -3456c594,-343 1333,-119 1663,475l39 79c343,594 119,1319 -475,1662l-6147 3457c-580,329 -1332,118 -1662,-475z"/>
    <path class="fil2" d="M28388 31937l0 -40c0,-263 -237,-501 -514,-501l-3232 0c-304,0 -541,238 -541,528l0 66c0,1134 950,2071 2111,2084 1187,26 2176,-976 2176,-2137z"/>
    <path class="fil2" d="M25737 36396l39 -79c330,-594 119,-1333 -474,-1663l-6161 -3456c-594,-343 -1319,-119 -1662,475l-40 79c-330,594 -119,1319 475,1662l6161 3457c593,329 1319,118 1662,-475z"/>
    <path class="fil2 str4" d="M35578 25935l-1544 -132c-197,765 -897,1345 -1728,1345 -831,0 -1517,-580 -1714,-1345l-1451 527c422,1346 1688,2335 3166,2335 1649,0 2994,-1187 3271,-2731l0 1z"/>
    <path class="fil2 str5" d="M30882 25974c0,-712 -568,-1293 -1280,-1293 -712,0 -1293,581 -1293,1293 0,699 581,1280 1293,1280 712,0 1280,-581 1280,-1280z"/>
    <path class="fil2" d="M36449 26014c0,-713 -581,-1280 -1293,-1280 -713,0 -1280,567 -1280,1280 0,712 567,1293 1280,1293 712,0 1293,-581 1293,-1293z"/>
    <path class="fil2 str4" d="M16925 25935l1543 -132c198,765 884,1345 1715,1345 831,0 1530,-580 1728,-1345l1438 527c-409,1346 -1676,2335 -3166,2335 -1636,0 -2982,-1187 -3259,-2731l1 1z"/>
    <path class="fil2 str5" d="M24167 25974c0,-699 -567,-1266 -1266,-1266 -713,0 -1280,567 -1280,1266 0,699 567,1267 1280,1267 699,0 1266,-568 1266,-1267z"/>
    <path class="fil2" d="M18626 26014c0,-713 -580,-1280 -1292,-1280 -713,0 -1280,567 -1280,1280 0,712 567,1293 1280,1293 712,0 1292,-581 1292,-1293z"/>
    <polygon class="fil3" points="26845,15421 26845,15698 26607,15698 26607,15817 26357,15817 26278,15817 26014,15817 26014,15698 25776,15698 25776,15421 21727,15421 21727,16001 21990,16001 21990,17597 22320,17597 22320,18020 22663,18020 22663,18217 24998,18217 24998,18020 25367,18020 25367,17597 25776,17597 25776,17109 26014,17109 26014,16555 26278,16555 26357,16555 26607,16555 26607,17109 26845,17109 26845,17597 27267,17597 27267,18020 27636,18020 27636,18217 29971,18217 29971,18020 30314,18020 30314,17597 30644,17597 30644,16001 30908,16001 30908,15421 "/>
   </g>
  </g>
 </g>
</svg>
