<?xml version="1.0" encoding="utf-8"?>
<!-- Generator: Adobe Illustrator 18.1.0, SVG Export Plug-In . SVG Version: 6.00 Build 0)  -->
<!DOCTYPE svg PUBLIC "-//W3C//DTD SVG 1.1//EN" "http://www.w3.org/Graphics/SVG/1.1/DTD/svg11.dtd">
<svg version="1.1" id="Camada_1" xmlns="http://www.w3.org/2000/svg" xmlns:xlink="http://www.w3.org/1999/xlink" x="0px" y="0px"
	 viewBox="0 0 35 35" enable-background="new 0 0 35 35" xml:space="preserve">
<g>
	<path fill="#00BC96" d="M6.5,25.5c0-0.8,0.3-1.5,0.9-2.1s1.3-0.9,2.1-0.9c0.8,0,1.5,0.3,2.1,0.9c0.6,0.6,0.9,1.3,0.9,2.1
		c0,0.8-0.3,1.5-0.9,2.1c-0.6,0.6-1.3,0.8-2.1,0.8c-0.8,0-1.5-0.3-2.1-0.9C6.8,27,6.5,26.3,6.5,25.5z M6.5,18.2V14
		c2.6,0,5,0.6,7.3,1.9s4,3.1,5.3,5.3s1.9,4.6,1.9,7.3h-4.2c0-2.8-1-5.3-3-7.3C11.8,19.2,9.4,18.2,6.5,18.2z M6.5,10.7V6.5
		c3,0,5.8,0.6,8.5,1.7s5,2.7,7,4.7s3.5,4.3,4.7,7c1.2,2.7,1.7,5.5,1.7,8.5h-4.2c0-2.4-0.5-4.7-1.4-6.9s-2.2-4.1-3.8-5.7
		c-1.6-1.6-3.5-2.8-5.7-3.8S8.9,10.7,6.5,10.7z"/>
</g>
</svg>
