<?xml version="1.0" encoding="utf-8"?>
<!-- Generator: Adobe Illustrator 18.1.0, SVG Export Plug-In . SVG Version: 6.00 Build 0)  -->
<!DOCTYPE svg PUBLIC "-//W3C//DTD SVG 1.1//EN" "http://www.w3.org/Graphics/SVG/1.1/DTD/svg11.dtd">
<svg version="1.1" id="Camada_1" xmlns="http://www.w3.org/2000/svg" xmlns:xlink="http://www.w3.org/1999/xlink" x="0px" y="0px"
	 viewBox="0 0 35 35" enable-background="new 0 0 35 35" xml:space="preserve">
<path fill="#797979" d="M19.6,7.3c4-2.4,7.1,0.8,7.1,0.8c1.1-0.1,3.5-1.2,3.5-1.2c-0.7,1.9-2.3,2.9-2.3,2.9c1.2,0.1,3-0.7,3-0.7
	c-0.6,1.1-2.7,2.8-2.7,2.8s0.7,7.4-5,12.4C13.4,32.8,4,25.9,4,25.9s4.3,0.7,8.1-2.3c0,0-3.6,0.2-5.2-3.8c0,0,1.2,0.3,2.3-0.1
	c0,0-4.3-1.2-4.2-5.4c0,0,1.4,0.6,2.4,0.6c0,0-3.9-3-1.7-7.4c4.3,5.7,11.4,5.8,11.4,5.8S16.8,9.1,19.6,7.3z"/>
</svg>
