<?xml version="1.0" encoding="utf-8"?>
<!-- Generator: Adobe Illustrator 18.1.0, SVG Export Plug-In . SVG Version: 6.00 Build 0)  -->
<!DOCTYPE svg PUBLIC "-//W3C//DTD SVG 1.1//EN" "http://www.w3.org/Graphics/SVG/1.1/DTD/svg11.dtd">
<svg version="1.1" id="Camada_1" xmlns="http://www.w3.org/2000/svg" xmlns:xlink="http://www.w3.org/1999/xlink" x="0px" y="0px"
	 viewBox="0 0 80 80" enable-background="new 0 0 80 80" xml:space="preserve">
<g>
	<path fill="#FFFFFF" d="M40.2,61.5c-10.9,0-19.8-9.6-19.8-21.5s8.9-21.5,19.8-21.5S60,28.2,60,40S51.1,61.5,40.2,61.5z M40.2,20.2
		c-10,0-18.1,8.9-18.1,19.8s8.1,19.8,18.1,19.8c10,0,18.1-8.9,18.1-19.8S50.2,20.2,40.2,20.2z"/>
	<polygon fill-rule="evenodd" clip-rule="evenodd" fill="#FFFFFF" points="42.1,36 42.1,37 41.3,37 41.3,37.4 40.4,37.4 40.1,37.4 
		39.2,37.4 39.2,37 38.4,37 38.4,36 24.2,36 24.2,38 25.1,38 25.1,43.5 26.3,43.5 26.3,44.9 27.4,44.9 27.4,45.6 35.6,45.6 
		35.6,44.9 36.9,44.9 36.9,43.5 38.4,43.5 38.4,41.8 39.2,41.8 39.2,39.9 40.1,39.9 40.4,39.9 41.3,39.9 41.3,41.8 42.1,41.8 
		42.1,43.5 43.6,43.5 43.6,44.9 44.9,44.9 44.9,45.6 53.1,45.6 53.1,44.9 54.3,44.9 54.3,43.5 55.4,43.5 55.4,38 56.3,38 56.3,36 	
		"/>
	<path fill="#FFFFFF" d="M60.7,50.7c-0.3,0-0.5-0.1-0.7-0.3c-0.4-0.4-0.3-1,0.1-1.4c3.9-3.5,4.2-7.6,4-9.6c-0.2-2.9-1.6-5.6-3.7-6.9
		c-0.4-0.3-0.6-0.9-0.3-1.3c0.3-0.4,0.9-0.6,1.3-0.3c2.6,1.7,4.3,4.8,4.5,8.4c0.3,4.2-1.3,8.2-4.7,11.2C61.2,50.7,61,50.7,60.7,50.7
		z"/>
	<path fill="#FFFFFF" d="M19.3,50.7c-0.2,0-0.5-0.1-0.6-0.2c-3.3-3-5-7-4.7-11.2c0.3-3.6,2-6.7,4.5-8.4c0.4-0.3,1-0.2,1.3,0.3
		c0.3,0.4,0.2,1-0.3,1.3c-2,1.3-3.4,4-3.7,6.9c-0.2,2.1,0.1,6.1,4,9.6c0.4,0.4,0.4,1,0.1,1.4C19.8,50.6,19.5,50.7,19.3,50.7z"/>
</g>
</svg>
