<?xml version="1.0" encoding="utf-8"?>
<!-- Generator: Adobe Illustrator 18.1.0, SVG Export Plug-In . SVG Version: 6.00 Build 0)  -->
<!DOCTYPE svg PUBLIC "-//W3C//DTD SVG 1.1//EN" "http://www.w3.org/Graphics/SVG/1.1/DTD/svg11.dtd">
<svg version="1.1" id="Camada_1" xmlns="http://www.w3.org/2000/svg" xmlns:xlink="http://www.w3.org/1999/xlink" x="0px" y="0px"
	 viewBox="0 0 35 35" enable-background="new 0 0 35 35" xml:space="preserve">
<path fill="#FFFFFF" d="M19,10.2c2.9-1.7,5.1,0.6,5.1,0.6c0.8-0.1,2.5-0.9,2.5-0.9C26.2,11.3,25,12,25,12c0.9,0.1,2.2-0.5,2.2-0.5
	c-0.4,0.8-2,2-2,2s0.5,5.3-3.6,8.9c-7,6.1-13.8,1.1-13.8,1.1s3.1,0.5,5.8-1.6c0,0-2.6,0.1-3.7-2.7c0,0,0.9,0.2,1.7-0.1
	c0,0-3.1-0.9-3-3.9c0,0,1,0.4,1.7,0.4c0,0-2.8-2.2-1.2-5.3c3.1,4.1,8.2,4.1,8.2,4.1S17,11.4,19,10.2z"/>
</svg>
