<?xml version="1.0" encoding="utf-8"?>
<!-- Generator: Adobe Illustrator 18.1.0, SVG Export Plug-In . SVG Version: 6.00 Build 0)  -->
<!DOCTYPE svg PUBLIC "-//W3C//DTD SVG 1.1//EN" "http://www.w3.org/Graphics/SVG/1.1/DTD/svg11.dtd">
<svg version="1.1" id="Camada_1" xmlns="http://www.w3.org/2000/svg" xmlns:xlink="http://www.w3.org/1999/xlink" x="0px" y="0px"
	 viewBox="0 0 35 35" enable-background="new 0 0 35 35" xml:space="preserve">
<g>
	<path fill="none" stroke="#FFFFFF" stroke-miterlimit="10" d="M26.7,17.5c3.2-2.9,4.8-5.8,3.8-7.5s-4.3-1.7-8.4-0.5
		c-1-4.2-2.7-7-4.6-7s-3.6,2.8-4.6,7C8.8,8.3,5.5,8.3,4.5,10s0.6,4.6,3.8,7.5c-3.2,2.9-4.8,5.8-3.8,7.5s4.3,1.7,8.4,0.5
		c1,4.2,2.7,7,4.6,7s3.6-2.8,4.6-7c4.1,1.3,7.4,1.2,8.4-0.5S29.9,20.4,26.7,17.5z"/>
	
		<ellipse fill="none" stroke="#FFFFFF" stroke-width="1.2" stroke-linecap="round" stroke-linejoin="round" stroke-miterlimit="10" cx="17.5" cy="17.5" rx="5.4" ry="15"/>
	
		<ellipse transform="matrix(-0.866 0.5 -0.5 -0.866 41.405 23.9061)" fill="none" stroke="#FFFFFF" stroke-width="1.2" stroke-linecap="round" stroke-linejoin="round" stroke-miterlimit="10" cx="17.5" cy="17.5" rx="15" ry="5.4"/>
	
		<ellipse transform="matrix(0.866 0.5 -0.5 0.866 11.0947 -6.4058)" fill="none" stroke="#FFFFFF" stroke-width="1.2" stroke-linecap="round" stroke-linejoin="round" stroke-miterlimit="10" cx="17.5" cy="17.5" rx="15" ry="5.4"/>
	
		<circle fill="none" stroke="#FFFFFF" stroke-width="1.2" stroke-linecap="round" stroke-linejoin="round" stroke-miterlimit="10" cx="17.5" cy="17.5" r="2.1"/>
</g>
</svg>
