<?xml version="1.0" encoding="utf-8"?>
<!-- Generator: Adobe Illustrator 18.1.0, SVG Export Plug-In . SVG Version: 6.00 Build 0)  -->
<!DOCTYPE svg PUBLIC "-//W3C//DTD SVG 1.1//EN" "http://www.w3.org/Graphics/SVG/1.1/DTD/svg11.dtd">
<svg version="1.1" id="Camada_1" xmlns="http://www.w3.org/2000/svg" xmlns:xlink="http://www.w3.org/1999/xlink" x="0px" y="0px"
	 viewBox="0 0 35 35" enable-background="new 0 0 35 35" xml:space="preserve">
<path fill="none" stroke="#FFFFFF" stroke-width="1.2" stroke-linecap="round" stroke-linejoin="round" stroke-miterlimit="10" d="
	M27.5,11.2h-4.7c-0.9,0-1.7-0.8-1.7-1.7l0.2-5.3c0-0.9-0.7-1.7-1.7-1.7H15c-0.9,0-1.7,0.8-1.7,1.7l0.2,5.3c0,0.9-0.7,1.7-1.7,1.7
	H7.5c-1.1,0-1.9,1-1.6,2L6.4,16c0.2,0.8,0.8,1.3,1.6,1.3h4.5c0.9,0,1.6,0.7,1.7,1.6l0.5,12c0,0.9,0.8,1.6,1.7,1.6h2.2
	c0.9,0,1.6-0.7,1.7-1.6l0.5-12c0-0.9,0.8-1.6,1.7-1.6H27c0.8,0,1.5-0.5,1.6-1.3l0.6-2.7C29.4,12.2,28.6,11.2,27.5,11.2z"/>
</svg>
