<?xml version="1.0" encoding="utf-8"?>
<!-- Generator: Adobe Illustrator 18.1.0, SVG Export Plug-In . SVG Version: 6.00 Build 0)  -->
<!DOCTYPE svg PUBLIC "-//W3C//DTD SVG 1.1//EN" "http://www.w3.org/Graphics/SVG/1.1/DTD/svg11.dtd">
<svg version="1.1" id="Camada_1" xmlns="http://www.w3.org/2000/svg" xmlns:xlink="http://www.w3.org/1999/xlink" x="0px" y="0px"
	 viewBox="0 0 35 35" enable-background="new 0 0 35 35" xml:space="preserve">
<path fill="none" stroke="#FFFFFF" stroke-width="1.308" stroke-linecap="round" stroke-linejoin="round" stroke-miterlimit="10" d="
	M11.9,16.7c0,4.8,2.2,9.1,5.6,12c3.4-2.9,5.6-7.2,5.6-12c0-4.3-1.7-8.1-4.5-11c-0.6-0.6-1.6-0.6-2.2,0C13.6,8.5,11.9,12.4,11.9,16.7
	z"/>
<path fill="none" stroke="#FFFFFF" stroke-width="1.308" stroke-linecap="round" stroke-linejoin="round" stroke-miterlimit="10" d="
	M30.3,11.7c-0.2-0.8-1-1.4-1.9-1.2c-2.1,0.4-4,1.3-5.7,2.7c0.3,1.1,0.4,2.3,0.4,3.5c0,4.7-2.1,8.9-5.4,11.8c0,0.1,0,0.1,0,0.2
	c4.1-0.5,7.9-2.7,10.4-6.4C30.2,19.1,30.9,15.3,30.3,11.7z"/>
<path fill="none" stroke="#FFFFFF" stroke-width="1.308" stroke-linecap="round" stroke-linejoin="round" stroke-miterlimit="10" d="
	M11.9,16.7c0-1.2,0.2-2.4,0.4-3.5c-1.7-1.3-3.7-2.2-5.7-2.7c-0.9-0.2-1.7,0.4-1.9,1.2c-0.6,3.6,0.1,7.4,2.2,10.6
	c2.5,3.7,6.3,5.9,10.4,6.4c0-0.1,0-0.1,0-0.2C14,25.6,11.9,21.4,11.9,16.7z"/>
<g>
	
		<path fill="none" stroke="#FFFFFF" stroke-width="1.308" stroke-linecap="round" stroke-linejoin="round" stroke-miterlimit="10" d="
		M17.2,28.4"/>
	
		<path fill="none" stroke="#FFFFFF" stroke-width="1.308" stroke-linecap="round" stroke-linejoin="round" stroke-miterlimit="10" d="
		M6.9,22.3c-0.6-1-1.1-2-1.5-3.1c-1,0-2,0.1-3,0.4c-0.9,0.2-1.4,1.2-1.1,2.1c0.9,2.8,2.9,5.2,5.7,6.6c3.3,1.7,7.1,1.8,10.3,0.5
		c0,0,0-0.1,0-0.1C13.2,28.2,9.4,26,6.9,22.3z"/>
</g>
<g>
	
		<path fill="none" stroke="#FFFFFF" stroke-width="1.308" stroke-linecap="round" stroke-linejoin="round" stroke-miterlimit="10" d="
		M17.8,28.4"/>
	
		<path fill="none" stroke="#FFFFFF" stroke-width="1.308" stroke-linecap="round" stroke-linejoin="round" stroke-miterlimit="10" d="
		M32.6,19.6c-1-0.2-2-0.4-3-0.4c-0.4,1.1-0.9,2.1-1.5,3.1c-2.5,3.7-6.3,5.9-10.4,6.4c0,0,0,0.1,0,0.1c3.2,1.3,7,1.2,10.3-0.5
		c2.8-1.4,4.8-3.8,5.7-6.6C34,20.8,33.5,19.8,32.6,19.6z"/>
</g>
</svg>
