<?xml version="1.0" encoding="utf-8"?>
<!-- Generator: Adobe Illustrator 18.1.0, SVG Export Plug-In . SVG Version: 6.00 Build 0)  -->
<!DOCTYPE svg PUBLIC "-//W3C//DTD SVG 1.1//EN" "http://www.w3.org/Graphics/SVG/1.1/DTD/svg11.dtd">
<svg version="1.1" id="Camada_1" xmlns="http://www.w3.org/2000/svg" xmlns:xlink="http://www.w3.org/1999/xlink" x="0px" y="0px"
	 viewBox="0 0 35 35" enable-background="new 0 0 35 35" xml:space="preserve">
<g>
	<path fill="none" stroke="#FFFFFF" stroke-width="1.2" stroke-linecap="round" stroke-linejoin="round" stroke-miterlimit="10" d="
		M24.1,18.2c-4.7-1.5-7.3-6.5-5.8-11.1c1.2-3.7,5.2-5.8,8.9-4.7c3,0.9,4.7,4.1,3.7,7.1c-0.8,2.4-3.3,3.7-5.7,3
		c-1.9-0.6-3-2.6-2.4-4.6c0.5-1.5,2.1-2.4,3.7-1.9c1.2,0.5,1.9,1.8,1.5,3c-0.3,1-1.4,1.5-2.3,1.2c-0.8-0.2-1.2-1.1-1-1.9"/>
	<path fill="none" stroke="#FFFFFF" stroke-width="1.2" stroke-linecap="round" stroke-linejoin="round" stroke-miterlimit="10" d="
		M9.1,15.7c0.8-0.2,1.3-1,1.1-1.8C10,13,9,12.3,8,12.5c-1.3,0.3-2,1.5-1.8,2.8c0.3,1.6,1.9,2.6,3.5,2.2c2-0.4,3.2-2.4,2.8-4.3
		c-0.5-2.5-3-4-5.4-3.5c-3.1,0.7-5,3.7-4.3,6.8c0.9,3.8,4.7,6.2,8.5,5.4c4.7-1,7.7-5.8,6.7-10.6"/>
	<path fill="none" stroke="#FFFFFF" stroke-width="1.2" stroke-linecap="round" stroke-linejoin="round" stroke-miterlimit="10" d="
		M15.1,20c3.6-3.3,9.2-3.1,12.6,0.5c2.7,2.9,2.5,7.4-0.4,10c-2.3,2.1-5.9,2-8-0.3c-1.7-1.9-1.6-4.7,0.3-6.4c1.5-1.4,3.8-1.3,5.1,0.2
		c1.1,1.2,1,3-0.2,4.1c-1.1,1-2.5,0.9-3.4-0.1c-0.7-0.8-0.6-1.9,0.1-2.6c0.6-0.6,1.6-0.5,2.1,0.1"/>
</g>
</svg>
