<?xml version="1.0" encoding="utf-8"?>
<!-- Generator: Adobe Illustrator 18.1.0, SVG Export Plug-In . SVG Version: 6.00 Build 0)  -->
<!DOCTYPE svg PUBLIC "-//W3C//DTD SVG 1.1//EN" "http://www.w3.org/Graphics/SVG/1.1/DTD/svg11.dtd">
<svg version="1.1" id="Camada_1" xmlns="http://www.w3.org/2000/svg" xmlns:xlink="http://www.w3.org/1999/xlink" x="0px" y="0px"
	 viewBox="0 0 35 35" enable-background="new 0 0 35 35" xml:space="preserve">
<path fill="none" stroke="#FFFFFF" stroke-width="1.3685" stroke-linecap="round" stroke-linejoin="round" stroke-miterlimit="10" d="
	M20,5h7.4c2.8,0,5.1,2.3,5.1,5.1v4.3c0,2.8-2.3,5.1-5.1,5.1h-1.8c0.7,2.1,1.3,4.2,1.3,4.2l-5-4.2h-1.8c-2.8,0-5.1-2.3-5.1-5.1v-4.3
	C14.9,7.3,17.2,5,20,5z"/>
<path fill="none" stroke="#FFFFFF" stroke-width="1.3685" stroke-linecap="round" stroke-linejoin="round" stroke-miterlimit="10" d="
	M21.9,19.5h-1.8c-2.8,0-5.1-2.3-5.1-5.1v-4.3c0-0.5,0.1-1,0.2-1.5H8.3c-3.2,0-5.9,2.6-5.9,5.9v4.9c0,3.2,2.6,5.9,5.9,5.9h2.1
	C9.6,27.6,8.8,30,8.8,30l5.8-4.8H17c2.9,0,5.3-2.1,5.8-4.9L21.9,19.5z"/>
</svg>
