<?xml version="1.0" encoding="utf-8"?>
<!-- Generator: Adobe Illustrator 18.1.0, SVG Export Plug-In . SVG Version: 6.00 Build 0)  -->
<!DOCTYPE svg PUBLIC "-//W3C//DTD SVG 1.1//EN" "http://www.w3.org/Graphics/SVG/1.1/DTD/svg11.dtd">
<svg version="1.1" id="Camada_1" xmlns="http://www.w3.org/2000/svg" xmlns:xlink="http://www.w3.org/1999/xlink" x="0px" y="0px"
	 viewBox="0 0 35 35" enable-background="new 0 0 35 35" xml:space="preserve">
<g>
	<path fill="none" stroke="#FFFFFF" stroke-width="1.2" stroke-linecap="round" stroke-linejoin="round" stroke-miterlimit="10" d="
		M18.5,3.8l3.8,7.6c0.2,0.3,0.5,0.6,0.8,0.6l8.4,1.2c0.9,0.1,1.3,1.3,0.6,1.9L26,21c-0.3,0.3-0.4,0.6-0.3,1l1.4,8.4
		c0.2,0.9-0.8,1.6-1.6,1.2l-7.5-4c-0.3-0.2-0.7-0.2-1,0l-7.5,4c-0.8,0.4-1.8-0.3-1.6-1.2L9.3,22c0.1-0.4-0.1-0.7-0.3-1l-6.1-5.9
		c-0.7-0.7-0.3-1.8,0.6-1.9l8.4-1.2c0.4-0.1,0.7-0.3,0.8-0.6l3.8-7.6C16.9,3,18.1,3,18.5,3.8z"/>
	
		<line fill="none" stroke="#FFFFFF" stroke-width="1.4" stroke-linecap="round" stroke-linejoin="round" stroke-miterlimit="10" x1="14" y1="16.7" x2="14" y2="19.8"/>
	
		<line fill="none" stroke="#FFFFFF" stroke-width="1.4" stroke-linecap="round" stroke-linejoin="round" stroke-miterlimit="10" x1="21.3" y1="16.7" x2="21.3" y2="19.8"/>
</g>
</svg>
