<?xml version="1.0" encoding="utf-8"?>
<!-- Generator: Adobe Illustrator 18.1.0, SVG Export Plug-In . SVG Version: 6.00 Build 0)  -->
<!DOCTYPE svg PUBLIC "-//W3C//DTD SVG 1.1//EN" "http://www.w3.org/Graphics/SVG/1.1/DTD/svg11.dtd">
<svg version="1.1" id="Camada_1" xmlns="http://www.w3.org/2000/svg" xmlns:xlink="http://www.w3.org/1999/xlink" x="0px" y="0px"
	 viewBox="0 0 35 35" enable-background="new 0 0 35 35" xml:space="preserve">
<path fill="none" stroke="#FFFFFF" stroke-width="1.028" stroke-linecap="round" stroke-linejoin="round" stroke-miterlimit="10" d="
	M34,20.2c0-0.6-1.5-1-5.3-1.4c-0.8-4.4-5.6-7.7-11.3-7.7S6.9,14.5,6.1,18.9C2.8,19.2,1,19.6,1,20.2s1.8,1.3,5.2,1.7
	c1,4.2,5.6,7.4,11.2,7.4s10.2-3.2,11.2-7.3C32.4,21.5,34,20.8,34,20.2z"/>
<circle fill="none" stroke="#FFFFFF" stroke-width="0.9424" stroke-linecap="round" stroke-linejoin="round" stroke-miterlimit="10" cx="17.6" cy="20.2" r="1.9"/>
<circle fill="none" stroke="#FFFFFF" stroke-width="0.8567" stroke-linecap="round" stroke-linejoin="round" stroke-miterlimit="10" cx="23.6" cy="20.2" r="1.2"/>
<circle fill="none" stroke="#FFFFFF" stroke-width="0.8567" stroke-linecap="round" stroke-linejoin="round" stroke-miterlimit="10" cx="11.9" cy="20.2" r="1.2"/>
<circle fill="none" stroke="#FFFFFF" stroke-width="0.8567" stroke-miterlimit="10" cx="17.7" cy="5.6" r="1.9"/>
<line fill="none" stroke="#FFFFFF" stroke-width="1.1994" stroke-miterlimit="10" x1="17.7" y1="7.1" x2="17.7" y2="12.8"/>
</svg>
